<?xml version="1.0" encoding="utf-8"?><svg xmlns="http://www.w3.org/2000/svg" xmlns:xlink="http://www.w3.org/1999/xlink"><symbol viewBox="0 0 61 61" id="bookmark-outline" xmlns="http://www.w3.org/2000/svg"><path d="M41.503 6.21h-22.5a5.625 5.625 0 00-5.625 5.625v43.124l16.875-15 16.875 15V11.834a5.625 5.625 0 00-5.625-5.625z"/></symbol><symbol viewBox="0 0 61 61" id="chatbubble-ellipses" xmlns="http://www.w3.org/2000/svg"><path d="M10.427 45.116c.14-.514-.168-1.227-.462-1.742a5.004 5.004 0 00-.298-.445A23.415 23.415 0 015.8 30.039c-.042-13.155 10.866-23.83 24.354-23.83 11.763 0 21.584 8.15 23.877 18.967a23.41 23.41 0 01.52 4.88c0 13.173-10.488 24.015-23.976 24.015-2.146 0-5.04-.539-6.618-.98a44.412 44.412 0 01-3.561-1.185 3.65 3.65 0 00-2.72.042l-7.95 2.868a1.866 1.866 0 01-.546.143 1.126 1.126 0 01-1.123-1.14c.01-.132.034-.26.07-.387l2.3-8.316z"/><path d="M18.925 34.334a3.75 3.75 0 100-7.5 3.75 3.75 0 000 7.5zm11.25 0a3.75 3.75 0 100-7.5 3.75 3.75 0 000 7.5zm11.25 0a3.75 3.75 0 100-7.5 3.75 3.75 0 000 7.5z"/></symbol><symbol viewBox="0 0 22 22" id="language-learning" xmlns="http://www.w3.org/2000/svg"><g clip-path="url(#cclip0)"><path d="M21.678 13.767a.322.322 0 00.322-.322V7.55a.816.816 0 00-.815-.815h-.966V5.713a.616.616 0 00-.616-.615h-4.156V2.81a.86.86 0 00-.86-.86H12.84a.322.322 0 100 .645h1.748c.12 0 .216.096.216.215v4.821a.216.216 0 01-.216.216h-.273c-.187 0-.361.1-.455.262l-.36.623-.36-.623a.526.526 0 00-.454-.262H4.384a.216.216 0 01-.216-.216v-4.82c0-.12.097-.216.216-.216h7.167a.322.322 0 100-.645H4.384a.861.861 0 00-.86.86v2.288H2.397a.616.616 0 00-.615.615v1.023H.815A.816.816 0 000 7.551v9.588c0 1.114.906 2.02 2.02 2.02h7.12a.16.16 0 01.155.116c.008.03.014.036.092.22a.8.8 0 00.766.555h1.694a.8.8 0 00.766-.555c.08-.19.084-.191.093-.22a.16.16 0 01.154-.115h7.12c1.114 0 2.02-.907 2.02-2.02v-2.407a.322.322 0 10-.645 0v2.406c0 .759-.617 1.376-1.375 1.376h-7.12a.8.8 0 00-.766.555l-.08.186c-.012.028-.037.15-.167.15h-1.694a.16.16 0 01-.155-.116c-.009-.029-.011-.03-.092-.22a.8.8 0 00-.766-.555H2.02a1.377 1.377 0 01-1.375-1.376V7.551a.17.17 0 01.17-.17h.967v9.298c0 .34.276.615.615.615h1.675a.322.322 0 100-.644H2.426V5.743h1.098V7.63c0 .475.385.86.86.86h6.294v7.376a.784.784 0 01-.783.783H5.36a.322.322 0 100 .644h4.534c.445 0 .843-.205 1.105-.525.262.32.66.525 1.105.525h7.498c.34 0 .616-.276.616-.615V7.381h.966a.17.17 0 01.17.17v5.893c0 .178.145.323.323.323zm-2.104 2.883h-7.469a.784.784 0 01-.783-.783V8.49h1.294l.429.743c.202.35.707.35.909 0l.429-.743h.205a.857.857 0 00.63-.276h2.71a.322.322 0 100-.645h-2.48V5.743h4.126V16.65z"/><path d="M17.928 9.773h-4.96a.322.322 0 100 .644h4.96a.322.322 0 000-.644zm0 2.202h-4.96a.322.322 0 100 .645h4.96a.322.322 0 100-.645zm0 2.203h-4.96a.322.322 0 000 .644h4.96a.322.322 0 000-.644zM4.072 10.417h4.96a.322.322 0 100-.644h-4.96a.322.322 0 100 .644zm0 2.203h4.96a.322.322 0 100-.645h-4.96a.322.322 0 100 .645zm0 2.202h4.96a.322.322 0 100-.644h-4.96a.322.322 0 100 .644zm6.606 3.358v.194a.322.322 0 00.644 0v-.194a.322.322 0 10-.644 0zM6.744 3.981a.374.374 0 00-.694.001l-.003.008-.877 2.3a.322.322 0 00.603.23l.139-.366h.963l.137.365a.322.322 0 10.603-.228l-.868-2.3a.245.245 0 00-.003-.01zM6.157 5.51l.239-.626.236.626h-.475zm3.241-1.795H8.72a.322.322 0 00-.322.322V6.37a.322.322 0 00.322.322h.001l.795-.002a.951.951 0 00.616-1.673.86.86 0 00-.735-1.302zm0 .644a.215.215 0 010 .43h-.356v-.43h.356zm.118 1.686c-.088 0-.293 0-.474.002v-.613h.474a.306.306 0 010 .611zm3.248-1.685c.17 0 .333.049.472.143a.322.322 0 00.361-.534 1.49 1.49 0 00-2.322 1.234 1.49 1.49 0 001.49 1.49 1.262 1.262 0 00.981-.445.322.322 0 00-.494-.414.62.62 0 01-.488.214.845.845 0 010-1.689z"/></g><defs><clipPath id="cclip0"><path d="M0 0h22v22H0z"/></clipPath></defs></symbol><symbol viewBox="0 0 61 61" id="person-outline" xmlns="http://www.w3.org/2000/svg"><path d="M40.333 17.46c-.46 6.195-5.156 11.25-10.313 11.25-5.156 0-9.86-5.054-10.312-11.25-.469-6.446 4.102-11.25 10.312-11.25 6.211 0 10.782 4.921 10.313 11.25zM30.02 36.21c-10.195 0-20.543 5.624-22.457 16.242-.231 1.28.493 2.508 1.832 2.508h41.25c1.341 0 2.065-1.229 1.834-2.508C50.563 41.835 40.216 36.21 30.02 36.21z"/></symbol><symbol viewBox="0 0 16 16" id="search" xmlns="http://www.w3.org/2000/svg"><path d="M11.742 10.329A6.457 6.457 0 0013 6.5C13 2.916 10.084 0 6.5 0A6.507 6.507 0 000 6.5C0 10.084 2.916 13 6.5 13a6.457 6.457 0 003.828-1.258L14.586 16 16 14.587l-4.258-4.258zM6.5 11A4.505 4.505 0 012 6.5C2 4.019 4.019 2 6.5 2S11 4.02 11 6.501s-2.019 4.5-4.5 4.5z"/></symbol><symbol viewBox="0 0 61 61" id="search-outline" xmlns="http://www.w3.org/2000/svg"><path d="M26.24 8.084a18.41 18.41 0 100 36.82 18.41 18.41 0 000-36.82zM39.973 40.228L52.83 53.084"/></symbol><symbol viewBox="0 0 61 61" id="wallet-outline" xmlns="http://www.w3.org/2000/svg"><path d="M48.848 17.46h-37.5a5.625 5.625 0 00-5.625 5.624v22.5a5.625 5.625 0 005.625 5.625h37.5a5.625 5.625 0 005.625-5.625v-22.5a5.625 5.625 0 00-5.625-5.625z"/><path d="M48.304 17.46v-3.516a5.86 5.86 0 00-6.956-5.754l-30.863 5.267a5.86 5.86 0 00-4.762 5.76v5.742M43.223 38.084a3.75 3.75 0 110-7.5 3.75 3.75 0 010 7.5z"/></symbol></svg>