<svg width="19" height="17" viewBox="0 0 19 17" fill="none" xmlns="http://www.w3.org/2000/svg">
<path d="M13.9531 0C12.9221 0 11.9769 0.326711 11.1437 0.971078C10.3449 1.58884 9.81309 2.37567 9.5 2.94782C9.18691 2.37563 8.65509 1.58884 7.85631 0.971078C7.02313 0.326711 6.07788 0 5.04688 0C2.16971 0 0 2.35337 0 5.47415C0 8.84569 2.70687 11.1524 6.80471 14.6445C7.50058 15.2376 8.28934 15.9098 9.10916 16.6267C9.21723 16.7213 9.35602 16.7734 9.5 16.7734C9.64398 16.7734 9.78277 16.7213 9.89084 16.6267C10.7107 15.9097 11.4995 15.2376 12.1957 14.6442C16.2931 11.1524 19 8.84569 19 5.47415C19 2.35337 16.8303 0 13.9531 0Z" fill="#124570" fill-opacity="0.8"/>
<path d="M8.97365 3.23583L9.49998 4.19774L10.0263 3.23585C10.3168 2.70503 10.8006 1.99493 11.5107 1.4457C12.2413 0.88072 13.058 0.6 13.9531 0.6C16.4539 0.6 18.4 2.6379 18.4 5.47415C18.4 6.97535 17.8056 8.26386 16.6724 9.63124C15.524 11.017 13.8691 12.4298 11.8066 14.1875L11.8066 14.1875L11.8061 14.1879C11.1114 14.7799 10.3216 15.453 9.50002 16.1714C8.67902 15.4536 7.88954 14.7807 7.19551 14.1893L7.19389 14.1879L7.19388 14.1879C5.13111 12.43 3.47608 11.017 2.32764 9.63128C1.1944 8.26386 0.6 6.97535 0.6 5.47415C0.6 2.6379 2.54606 0.6 5.04688 0.6C5.94196 0.6 6.75872 0.88072 7.48925 1.4457L7.85631 0.971078L7.48925 1.4457C8.19943 1.99494 8.68318 2.705 8.97365 3.23583Z" stroke="#124570" stroke-opacity="0.8" stroke-width="1.2"/>
</svg>
