<svg width="12" height="18" viewBox="0 0 12 18" fill="none" xmlns="http://www.w3.org/2000/svg">
<path d="M5.86567 0.17627C2.63136 0.17627 0 2.80763 0 6.04194C0 10.1071 5.87144 17.0513 5.87144 17.0513C5.87144 17.0513 11.7313 9.9072 11.7313 6.04194C11.7313 2.80763 9.10008 0.17627 5.86567 0.17627ZM7.63546 7.75941C7.14746 8.24731 6.50662 8.49131 5.86567 8.49131C5.22482 8.49131 4.58377 8.24731 4.09598 7.75941C3.12008 6.78362 3.12008 5.19582 4.09598 4.21992C4.56853 3.74717 5.19712 3.48679 5.86567 3.48679C6.53422 3.48679 7.16271 3.74727 7.63546 4.21992C8.61136 5.19582 8.61136 6.78362 7.63546 7.75941Z" fill="#50575E"/>
</svg>
