<svg width="87" height="87" viewBox="0 0 87 87" fill="none" xmlns="http://www.w3.org/2000/svg">
<rect width="87" height="87" rx="43.5" fill="#FF3535"/>
<path d="M33.8594 14C34.4202 14 34.875 14.4461 34.875 14.9961V19.5781C34.875 20.1282 34.4202 20.5742 33.8594 20.5742C33.2985 20.5742 32.8438 20.1282 32.8438 19.5781V14.9961C32.8438 14.4461 33.2985 14 33.8594 14Z" fill="white"/>
<path d="M57.2188 45.0781C57.7794 45.0781 58.2344 45.5244 58.2344 46.0742C58.2344 46.6241 57.7794 47.0703 57.2188 47.0703C56.6581 47.0703 56.2031 46.6241 56.2031 46.0742C56.2031 45.5244 56.6581 45.0781 57.2188 45.0781Z" fill="white"/>
<path d="M19.6406 43.0859C19.6406 40.889 21.4631 39.1016 23.7031 39.1016H31.285C30.1112 36.1528 29.6361 32.682 29.7277 29.5925C29.7452 29.0029 29.7682 28.6619 29.7994 28.4472C29.8519 26.295 31.6538 24.5586 33.8594 24.5586C36.0994 24.5586 37.9219 26.346 37.9219 28.543V29.5391C37.9219 35.839 46.1702 39.3786 52.3949 40.8964C52.8656 39.8412 53.9399 39.1016 55.1875 39.1016H65.3438C65.9046 39.1016 66.3594 39.5476 66.3594 40.0977V64.0039C66.3594 64.5539 65.9046 65 65.3438 65H55.1875C53.9482 65 52.8801 64.2702 52.4046 63.2261C51.8892 63.3557 51.4107 63.4783 50.969 63.5914C47.4229 64.4998 45.4696 65 40.7189 65H29.7969C27.5568 65 25.7344 63.2126 25.7344 61.0156C25.7344 60.1964 25.988 59.4344 26.422 58.8005C24.853 58.2623 23.7031 56.7921 23.7031 55.0391C23.7031 54.2229 23.9505 53.4584 24.3832 52.8216C22.8212 52.2825 21.6719 50.8156 21.6719 49.0625C21.6719 48.2433 21.9255 47.4813 22.3595 46.8474C20.7905 46.3092 19.6406 44.839 19.6406 43.0859ZM54.1719 62.0117C54.1719 62.561 54.6275 63.0078 55.1875 63.0078H64.3281V41.0938H55.1875C54.6275 41.0938 54.1719 41.5406 54.1719 42.0898V62.0117ZM23.7031 45.0781C25.8815 45.0781 26.4008 45.0781 28.7812 45.0781C29.3421 45.0781 29.7969 45.5242 29.7969 46.0742C29.7969 46.6243 29.3421 47.0703 28.7812 47.0703H25.7344C24.6143 47.0703 23.7031 47.964 23.7031 49.0625C23.7031 50.1628 24.6125 51.0547 25.7344 51.0547H30.8125C31.3733 51.0547 31.8281 51.5007 31.8281 52.0508C31.8281 52.6008 31.3733 53.0469 30.8125 53.0469H27.7656C26.6589 53.0469 25.7344 53.914 25.7344 55.0391C25.7344 56.1393 26.6438 57.0312 27.7656 57.0312C29.944 57.0312 30.4633 57.0312 32.8438 57.0312C33.4046 57.0312 33.8594 57.4773 33.8594 58.0273C33.8594 58.5774 33.4046 59.0234 32.8438 59.0234H29.7969C28.6768 59.0234 27.7656 59.9171 27.7656 61.0156C27.7656 62.1141 28.6768 63.0078 29.7969 63.0078H40.7189C45.2087 63.0078 46.9623 62.5587 50.4557 61.6639C50.9675 61.5328 51.5288 61.3891 52.1406 61.2361V42.8892C44.7908 41.1721 35.8906 36.981 35.8906 29.5391V28.543C35.8906 27.4445 34.9794 26.5508 33.8594 26.5508C32.7414 26.5508 31.8303 27.4431 31.8281 28.5399V28.543C31.8281 28.9759 31.2772 34.2887 33.4862 39.1016H36.9062C37.4671 39.1016 37.9219 39.5476 37.9219 40.0977C37.9219 40.6477 37.4671 41.0938 36.9062 41.0938C36.197 41.0938 24.8607 41.0938 23.7031 41.0938C22.5831 41.0938 21.6719 41.9874 21.6719 43.0859C21.6719 44.1862 22.5813 45.0781 23.7031 45.0781Z" fill="white"/>
<path d="M57.2188 49.0625C57.7796 49.0625 58.2344 49.5086 58.2344 50.0586V58.0273C58.2344 58.5774 57.7796 59.0234 57.2188 59.0234C56.6579 59.0234 56.2031 58.5774 56.2031 58.0273V50.0586C56.2031 49.5086 56.6579 49.0625 57.2188 49.0625Z" fill="white"/>
<path d="M41.9844 26.5508H46.0469C46.6077 26.5508 47.0625 26.9968 47.0625 27.5469C47.0625 28.0969 46.6077 28.543 46.0469 28.543H41.9844C41.4235 28.543 40.9688 28.0969 40.9688 27.5469C40.9688 26.9968 41.4235 26.5508 41.9844 26.5508Z" fill="white"/>
<path d="M21.6719 26.5508H25.7344C26.2952 26.5508 26.75 26.9968 26.75 27.5469C26.75 28.0969 26.2952 28.543 25.7344 28.543H21.6719C21.111 28.543 20.6562 28.0969 20.6562 27.5469C20.6562 26.9968 21.111 26.5508 21.6719 26.5508Z" fill="white"/>
<path d="M24.5237 18.3908C24.9204 18.0019 25.5633 18.0019 25.9601 18.3908L28.8322 21.2076C29.2288 21.5966 29.2288 22.2273 28.8322 22.6164C28.4354 23.0054 27.7926 23.0053 27.3958 22.6164L24.5237 19.7996C24.1271 19.4106 24.1271 18.7799 24.5237 18.3908Z" fill="white"/>
<path d="M38.8865 21.2076L41.7586 18.3908C42.1553 18.0019 42.7982 18.0019 43.195 18.3908C43.5916 18.7798 43.5916 19.4105 43.195 19.7996L40.3229 22.6164C39.926 23.0054 39.2832 23.0053 38.8865 22.6164C38.4899 22.2274 38.4899 21.5967 38.8865 21.2076Z" fill="white"/>
</svg>
