<svg width="577" height="390" viewBox="0 0 577 390" fill="none" xmlns="http://www.w3.org/2000/svg">
<path d="M527.797 136.456C527.191 136.953 526.585 137.429 525.965 137.897H372.982C371.843 137.429 370.708 136.949 369.579 136.456C353.428 129.436 338.396 120.088 324.962 108.711C316.041 101.162 307.834 93.3684 301.885 86.0646C293.585 75.8724 285.941 64.7655 282.385 52.1099C278.837 39.4544 279.897 24.9476 287.823 14.453C290.277 11.2246 293.294 8.46495 296.729 6.30642C297.299 5.94628 297.876 5.60054 298.467 5.27641C307.971 -0.0537713 319.964 -1.35031 330.666 1.40842C345.99 5.36284 358.725 16.405 367.812 29.3558C376.898 42.2995 382.797 57.1664 388.609 71.8676C394.508 45.6273 412.371 22.1241 436.5 10.1744C460.623 -1.77528 490.593 -1.63122 514.203 11.3125C521.632 15.4098 528.342 20.6891 534.071 26.9429C534.64 27.5551 535.196 28.1818 535.744 28.8156C547.26 42.1339 554.464 59.1904 555.056 76.78C555.813 99.4405 545.299 122.202 527.797 136.456Z" fill="#F2F2F2"/>
<path d="M379.097 137.897H376.934C376.906 137.414 376.869 136.939 376.826 136.456C376.07 127.035 374.487 117.697 372.095 108.552C366.608 87.6736 357.236 68.0131 344.468 50.5973C331.737 33.1258 315.687 18.3282 297.234 7.04829C297.099 6.97104 296.983 6.86408 296.896 6.73552C296.808 6.60697 296.751 6.46021 296.729 6.30639C296.694 6.10525 296.716 5.89822 296.794 5.70944C296.872 5.52067 297.002 5.35791 297.169 5.24015C297.336 5.12238 297.534 5.05446 297.738 5.04429C297.942 5.03412 298.145 5.08214 298.323 5.18273C298.372 5.21139 298.42 5.24264 298.467 5.27636C308.922 11.6413 318.627 19.1604 327.399 27.6919C343.091 42.981 355.743 61.0983 364.689 81.0873C372.581 98.594 377.416 117.321 378.982 136.456C379.026 136.939 379.062 137.422 379.097 137.897Z" fill="white"/>
<path d="M535.744 28.8156C535.728 28.8237 535.711 28.8286 535.693 28.83C534.114 29.1181 532.527 29.4206 530.955 29.7448C518.05 32.3919 505.418 36.2233 493.218 41.1903C481.05 46.1502 469.346 52.1761 458.243 59.1976C447.125 66.2155 436.641 74.1881 426.909 83.025C417.178 91.8491 408.251 101.52 400.234 111.923C394.242 119.718 388.795 127.915 383.929 136.456C383.655 136.932 383.388 137.414 383.121 137.897H380.648C380.908 137.414 381.175 136.932 381.449 136.456C387.335 125.99 394.084 116.033 401.626 106.687C409.967 96.3432 419.212 86.7615 429.253 78.0549C439.23 69.3974 449.938 61.6181 461.257 54.8038C472.623 47.962 484.574 42.1385 496.968 37.4015C508.996 32.8087 521.414 29.3083 534.071 26.9428C534.424 26.878 534.77 26.8132 535.124 26.7483C536.472 26.5034 537.049 28.5347 535.744 28.8156Z" fill="white"/>
<path d="M142.555 142.179C146.402 134.925 147.037 125.477 142.253 118.803C139.406 114.829 134.96 112.221 130.294 110.75C125.629 109.279 120.708 108.846 115.829 108.489C110.999 108.135 106.084 107.852 101.366 108.943C96.6477 110.034 92.0778 112.699 89.7795 116.957C85.8969 124.149 89.4338 133.372 86.582 141.031C83.965 148.059 76.5169 152.168 69.1951 153.826C61.8734 155.485 54.2313 155.308 46.906 156.95C39.5806 158.593 32.12 162.663 29.4566 169.675C27.5306 174.744 28.4875 180.584 31.0254 185.378C33.5633 190.172 37.5379 194.053 41.7569 197.465C48.0508 202.557 55.4143 206.917 63.5014 207.358C72.0226 207.824 80.3545 203.772 86.4876 197.845C92.6207 191.918 96.7961 184.258 100.132 176.413C102.248 171.435 104.248 166.079 108.489 162.718C111.605 160.248 115.569 159.166 119.413 158.143L123.765 156.984C127.71 155.953 131.401 154.127 134.612 151.619C137.824 149.11 140.487 145.971 142.439 142.396C142.478 142.324 142.516 142.252 142.555 142.179Z" fill="#2F2E41"/>
<path d="M108.228 380.794H99.3875L95.1811 346.733H108.23L108.228 380.794Z" fill="#FFB8B8"/>
<path d="M93.0721 378.271H110.123V388.994H82.3366C82.3366 387.586 82.6143 386.191 83.1538 384.89C83.6933 383.589 84.484 382.407 85.4809 381.412C86.4778 380.416 87.6613 379.626 88.9638 379.087C90.2663 378.548 91.6623 378.271 93.0721 378.271Z" fill="#2F2E41"/>
<path d="M181.784 380.794H172.944L168.737 346.733H181.786L181.784 380.794Z" fill="#FFB8B8"/>
<path d="M166.628 378.271H183.679V388.994H155.893C155.893 387.586 156.171 386.191 156.71 384.89C157.25 383.589 158.04 382.407 159.037 381.412C160.034 380.416 161.218 379.626 162.52 379.087C163.823 378.548 165.219 378.271 166.628 378.271Z" fill="#2F2E41"/>
<path d="M125.223 353.722C125.1 353.722 124.976 353.716 124.854 353.702L88.8852 349.853C88.4075 349.802 87.9461 349.65 87.5319 349.407C87.1177 349.164 86.76 348.835 86.4828 348.443C86.2056 348.051 86.0151 347.605 85.9241 347.134C85.8331 346.662 85.8436 346.177 85.955 345.71L117.802 224.723C117.951 224.107 118.27 223.545 118.722 223.101C119.173 222.656 119.74 222.347 120.359 222.207L149.903 213.981C150.495 213.851 151.111 213.882 151.688 214.069C152.265 214.257 152.781 214.595 153.183 215.049C172.178 236.449 186.492 283.888 197.336 343.682C197.418 344.134 197.407 344.597 197.304 345.044C197.201 345.491 197.007 345.912 196.736 346.282C196.465 346.652 196.121 346.962 195.725 347.195C195.33 347.428 194.891 347.578 194.436 347.637L164.964 351.395C164.129 351.504 163.282 351.296 162.592 350.812C161.902 350.329 161.418 349.605 161.236 348.783L146.897 284.93C146.765 284.342 146.435 283.818 145.962 283.444C145.489 283.07 144.902 282.87 144.299 282.877C143.696 282.884 143.114 283.097 142.65 283.482C142.186 283.867 141.868 284.399 141.75 284.989L128.531 351.005C128.381 351.771 127.969 352.461 127.366 352.957C126.762 353.453 126.004 353.723 125.223 353.722Z" fill="#2F2E41"/>
<path d="M119.752 158.793C129.534 158.793 137.464 150.872 137.464 141.101C137.464 131.331 129.534 123.41 119.752 123.41C109.97 123.41 102.04 131.331 102.04 141.101C102.04 150.872 109.97 158.793 119.752 158.793Z" fill="#FFB8B8"/>
<path d="M119.257 225.063C118.513 225.062 117.789 224.816 117.199 224.361C116.61 223.907 116.187 223.271 115.997 222.552L105.341 182.569C104.572 179.696 104.891 176.641 106.236 173.987C107.581 171.334 109.858 169.27 112.632 168.189C121.209 164.844 129.381 163.604 136.92 164.5C143.621 165.298 151.887 204.922 151.34 205.767L153.985 213.69C154.135 214.139 154.188 214.615 154.142 215.087C154.096 215.558 153.951 216.014 153.717 216.426C153.483 216.838 153.165 217.196 152.784 217.478C152.402 217.759 151.965 217.957 151.502 218.058L119.992 224.982C119.751 225.035 119.504 225.062 119.257 225.063Z" fill="#CCCCCC"/>
<path d="M128.807 265.952C128.958 265.165 128.936 264.354 128.74 263.577C128.544 262.8 128.18 262.075 127.674 261.453C127.167 260.832 126.53 260.329 125.808 259.98C125.086 259.631 124.296 259.444 123.493 259.433L117.354 240.943L111.08 248.893L117.871 265.233C117.942 266.58 118.505 267.855 119.454 268.815C120.403 269.776 121.672 270.355 123.019 270.444C124.367 270.532 125.701 270.124 126.768 269.296C127.834 268.468 128.56 267.278 128.807 265.952Z" fill="#FFB8B8"/>
<path d="M207.734 221.515C207.366 220.803 206.847 220.179 206.212 219.689C205.577 219.199 204.842 218.854 204.06 218.678C203.277 218.502 202.465 218.5 201.681 218.671C200.898 218.842 200.161 219.183 199.523 219.67L183.258 208.922L183.243 219.045L198.691 227.699C199.58 228.715 200.812 229.37 202.152 229.539C203.492 229.708 204.848 229.381 205.962 228.619C207.077 227.856 207.873 226.712 208.199 225.403C208.526 224.094 208.36 222.71 207.733 221.515H207.734Z" fill="#FFB8B8"/>
<path d="M115.936 257.409C115.225 257.409 114.531 257.185 113.955 256.769C113.378 256.353 112.947 255.766 112.724 255.091L98.3323 224.683C97.7421 222.901 97.4415 221.036 97.4419 219.159L101.769 179.635C101.769 177.423 102.614 175.293 104.132 173.682C105.651 172.07 107.728 171.098 109.939 170.965C112.151 170.831 114.33 171.545 116.032 172.962C117.734 174.378 118.83 176.39 119.098 178.587L112.478 223.7L123.042 251.388C123.209 252.124 123.123 252.896 122.799 253.578C122.475 254.261 121.931 254.815 121.254 255.151L117.448 257.053C116.979 257.287 116.461 257.409 115.936 257.409Z" fill="#CCCCCC"/>
<path d="M192.798 225.507C192.268 225.508 191.745 225.383 191.273 225.144L162.652 210.705C160.974 209.859 159.443 208.75 158.117 207.42L130.182 179.427C128.618 177.86 127.712 175.756 127.649 173.544C127.585 171.332 128.37 169.179 129.841 167.525C131.313 165.871 133.361 164.841 135.568 164.644C137.775 164.447 139.973 165.099 141.715 166.467L171.976 200.034L195.963 215.247C196.602 215.651 197.087 216.257 197.34 216.969C197.593 217.681 197.599 218.457 197.357 219.172L196.005 223.203C195.779 223.874 195.349 224.458 194.773 224.871C194.198 225.285 193.507 225.507 192.798 225.507L192.798 225.507Z" fill="#CCCCCC"/>
<path d="M99.6053 131.955C102.614 135.886 106.939 138.604 111.789 139.612C116.705 140.627 121.822 139.895 126.255 137.542C129.822 135.617 132.677 132.728 135.473 129.883C136.64 128.696 137.882 127.327 137.824 125.707C137.733 123.198 134.713 121.826 132.12 121.279C123.612 119.506 114.759 120.5 106.857 124.117C103.338 125.749 99.6712 128.703 100.2 132.375" fill="#2F2E41"/>
<path d="M564.741 136.456H217.151C213.901 136.461 210.786 137.753 208.488 140.048C206.189 142.343 204.896 145.455 204.892 148.701V282.676C204.896 285.922 206.189 289.034 208.488 291.33C210.786 293.625 213.901 294.917 217.151 294.921H564.741C567.991 294.917 571.106 293.625 573.404 291.33C575.702 289.034 576.995 285.922 577 282.676V148.701C576.995 145.455 575.702 142.343 573.404 140.048C571.106 137.753 567.991 136.461 564.741 136.456ZM575.558 282.676C575.554 285.541 574.413 288.287 572.386 290.312C570.358 292.338 567.608 293.477 564.741 293.481H217.151C214.283 293.477 211.534 292.338 209.506 290.312C207.478 288.287 206.338 285.541 206.334 282.676V148.701C206.338 145.837 207.478 143.091 209.506 141.065C211.534 139.04 214.283 137.9 217.151 137.897H564.741C567.608 137.9 570.358 139.04 572.386 141.065C574.413 143.091 575.554 145.837 575.558 148.701V282.676Z" fill="#3F3D56"/>
<path d="M280.261 257.466C271.988 257.466 263.902 255.016 257.023 250.425C250.145 245.835 244.784 239.31 241.618 231.676C238.453 224.042 237.624 215.642 239.238 207.538C240.852 199.435 244.836 191.991 250.685 186.148C256.535 180.305 263.987 176.326 272.101 174.714C280.214 173.102 288.624 173.93 296.267 177.092C303.91 180.254 310.442 185.608 315.038 192.479C319.634 199.349 322.087 207.426 322.087 215.689C322.074 226.765 317.664 237.384 309.822 245.216C301.981 253.048 291.35 257.453 280.261 257.466ZM280.261 175.352C272.274 175.352 264.466 177.718 257.825 182.15C251.184 186.582 246.008 192.882 242.951 200.253C239.894 207.623 239.095 215.734 240.653 223.558C242.211 231.383 246.057 238.57 251.705 244.211C257.353 249.852 264.549 253.694 272.382 255.25C280.216 256.807 288.336 256.008 295.715 252.955C303.094 249.902 309.401 244.732 313.839 238.099C318.276 231.465 320.645 223.667 320.645 215.689C320.632 204.995 316.374 194.742 308.803 187.18C301.232 179.618 290.967 175.364 280.261 175.352Z" fill="#3F3D56"/>
<path d="M533.722 189.038H367.138C364.81 189.039 362.572 189.941 360.895 191.553C359.217 193.166 358.229 195.365 358.138 197.689C358.126 197.806 358.122 197.924 358.124 198.042C358.127 200.428 359.078 202.717 360.768 204.404C362.458 206.092 364.749 207.042 367.138 207.045H533.722C536.112 207.045 538.405 206.097 540.096 204.408C541.786 202.72 542.736 200.429 542.736 198.042C542.736 195.654 541.786 193.364 540.096 191.675C538.405 189.986 536.112 189.038 533.722 189.038Z" fill="#FF3535"/>
<path d="M533.722 224.332H367.138C364.81 224.334 362.572 225.235 360.895 226.848C359.217 228.46 358.229 230.659 358.138 232.983C358.126 233.1 358.122 233.218 358.124 233.336C358.127 235.723 359.078 238.011 360.768 239.699C362.458 241.387 364.749 242.336 367.138 242.34H533.722C536.112 242.34 538.405 241.391 540.096 239.703C541.786 238.014 542.736 235.724 542.736 233.336C542.736 230.948 541.786 228.658 540.096 226.969C538.405 225.281 536.112 224.332 533.722 224.332Z" fill="#FF3535"/>
<path d="M275.595 233.942C274.427 233.944 273.291 233.568 272.358 232.868L272.3 232.825L260.11 223.503C259.545 223.071 259.071 222.532 258.715 221.917C258.359 221.302 258.128 220.623 258.034 219.919C257.941 219.214 257.988 218.499 258.171 217.812C258.355 217.126 258.672 216.483 259.104 215.919C259.537 215.355 260.077 214.882 260.692 214.526C261.308 214.17 261.988 213.939 262.693 213.846C263.398 213.753 264.114 213.799 264.801 213.983C265.489 214.166 266.133 214.483 266.697 214.915L274.593 220.962L293.252 196.656C293.685 196.093 294.225 195.62 294.841 195.264C295.456 194.909 296.136 194.678 296.841 194.585C297.546 194.492 298.263 194.539 298.95 194.722C299.637 194.906 300.281 195.223 300.846 195.655L300.73 195.813L300.849 195.658C301.987 196.531 302.732 197.821 302.92 199.243C303.108 200.664 302.723 202.103 301.851 203.242L279.903 231.831C279.396 232.49 278.743 233.023 277.996 233.389C277.248 233.755 276.427 233.945 275.595 233.942Z" fill="#FF3535"/>
<path d="M275.476 390H0.721148C0.529889 390 0.346464 389.924 0.211224 389.789C0.0759841 389.654 7.62939e-06 389.471 7.62939e-06 389.28C7.62939e-06 389.089 0.0759841 388.905 0.211224 388.77C0.346464 388.635 0.529889 388.559 0.721148 388.559H275.476C275.667 388.559 275.85 388.635 275.985 388.77C276.121 388.905 276.197 389.089 276.197 389.28C276.197 389.471 276.121 389.654 275.985 389.789C275.85 389.924 275.667 390 275.476 390Z" fill="#3F3D56"/>
<path d="M492.724 104.007C477.66 101.937 462.361 102.282 447.404 105.027C432.492 107.75 418.095 112.778 404.732 119.929C397.223 123.96 390.095 128.663 383.438 133.982C382.35 134.849 383.89 136.369 384.968 135.509C396.65 126.228 409.745 118.875 423.756 113.731C437.656 108.596 452.266 105.636 467.07 104.954C475.447 104.57 483.842 104.95 492.149 106.09C492.426 106.156 492.717 106.115 492.964 105.975C493.211 105.835 493.395 105.607 493.48 105.336C493.555 105.06 493.517 104.765 493.376 104.516C493.234 104.267 493 104.084 492.724 104.007H492.724Z" fill="white"/>
</svg>
