<svg width="29" height="22" viewBox="0 0 29 22" fill="none" xmlns="http://www.w3.org/2000/svg">
<path d="M28.4296 11.4462C28.4296 9.93098 27.469 8.63618 26.1251 8.13804V0H2.30452V8.13804C0.960553 8.63618 0 9.93104 0 11.4462V18.238H0.790475V22H27.639V18.238H28.4296V11.4462ZM3.97031 1.66583H24.4592V7.91943H22.7934V3.33172H14.2148H5.63616V7.91943H3.97037L3.97031 1.66583ZM13.3819 7.91937H7.30196V4.9975H13.3819V7.91937ZM15.0477 4.9975H21.1277V7.91937H15.0477V4.9975ZM1.6658 11.4462C1.6658 10.4201 2.50058 9.58521 3.52671 9.58521H24.9029C25.929 9.58521 26.7638 10.42 26.7638 11.4462V16.5722H1.6658V11.4462ZM25.9733 20.3342H2.45627V18.238H25.9732L25.9733 20.3342Z" fill="#124570"/>
</svg>
