<svg width="22" height="22" viewBox="0 0 22 22" fill="none" xmlns="http://www.w3.org/2000/svg">
<g clip-path="url(#clip0)">
<path d="M19.6295 0H2.3705C1.06331 0 0 1.05692 0 2.35608V19.5115C0 20.8108 1.06331 21.8677 2.3705 21.8677H19.6295C20.9367 21.8677 22 20.8108 22 19.5115V2.35608C22 1.05692 20.9367 0 19.6295 0V0ZM2.3705 1.28131H19.6295C20.2259 1.28131 20.7109 1.76347 20.7109 2.35608V5.48962H1.28906V2.35608C1.28906 1.76347 1.77414 1.28131 2.3705 1.28131V1.28131ZM19.6295 20.5864H2.3705C1.77414 20.5864 1.28906 20.1043 1.28906 19.5115V6.77093H20.7109V19.5115C20.7109 20.1043 20.2259 20.5864 19.6295 20.5864V20.5864Z" fill="#124570"/>
<path d="M4.78687 4.02625C4.95673 4.02625 5.12256 3.95801 5.24291 3.83839C5.36275 3.7191 5.4314 3.55393 5.4314 3.38559C5.4314 3.21692 5.36275 3.05158 5.24291 2.93246C5.12256 2.81334 4.95673 2.74494 4.78687 2.74494C4.61717 2.74494 4.45084 2.81334 4.33099 2.93246C4.21115 3.05158 4.14233 3.21692 4.14233 3.38559C4.14233 3.55427 4.21115 3.7191 4.33099 3.83839C4.45134 3.95801 4.61717 4.02625 4.78687 4.02625Z" fill="#124570"/>
<path d="M8.9295 4.02625C9.0992 4.02625 9.26503 3.95801 9.38538 3.83839C9.50522 3.7191 9.57403 3.55393 9.57403 3.38559C9.57403 3.21692 9.50522 3.05158 9.38538 2.93246C9.26503 2.81334 9.0992 2.74494 8.9295 2.74494C8.75981 2.74494 8.59348 2.81334 8.47363 2.93246C8.35362 3.05158 8.28497 3.21692 8.28497 3.38559C8.28497 3.55427 8.35362 3.7191 8.47363 3.83839C8.59381 3.95801 8.75981 4.02625 8.9295 4.02625Z" fill="#124570"/>
<path d="M13.0705 4.02625C13.2402 4.02625 13.4062 3.95801 13.5264 3.83839C13.6462 3.7191 13.715 3.55393 13.715 3.38559C13.715 3.21692 13.6462 3.05158 13.5264 2.93246C13.4065 2.81334 13.2402 2.74494 13.0705 2.74494C12.9008 2.74494 12.7345 2.81334 12.6146 2.93246C12.4948 3.05158 12.426 3.21692 12.426 3.38559C12.426 3.55427 12.4948 3.7191 12.6146 3.83839C12.735 3.95801 12.9008 4.02625 13.0705 4.02625Z" fill="#124570"/>
<path d="M17.2131 4.02625C17.3828 4.02625 17.5487 3.95751 17.669 3.83839C17.7888 3.7191 17.8577 3.55393 17.8577 3.38559C17.8577 3.21692 17.7888 3.05158 17.669 2.93246C17.5487 2.81334 17.3828 2.74494 17.2131 2.74494C17.0433 2.74494 16.8771 2.81334 16.7573 2.93246C16.6373 3.05158 16.5686 3.21692 16.5686 3.38559C16.5686 3.55427 16.6373 3.7191 16.7573 3.83839C16.8774 3.95751 17.0433 4.02625 17.2131 4.02625Z" fill="#124570"/>
<path d="M18.5938 8.23457H3.4057C3.04987 8.23457 2.76117 8.52136 2.76117 8.87522V18.4822C2.76117 18.8359 3.04987 19.1229 3.4057 19.1229H18.5938C18.9498 19.1229 19.2383 18.8359 19.2383 18.4822V8.87522C19.2383 8.52136 18.9498 8.23457 18.5938 8.23457ZM17.9493 17.8414H4.05023V9.51588H17.9493V17.8414Z" fill="#124570"/>
<path d="M6.16693 12.2607H15.8322C16.188 12.2607 16.4767 11.9739 16.4767 11.62C16.4767 11.2661 16.188 10.9794 15.8322 10.9794H6.16693C5.8111 10.9794 5.5224 11.2661 5.5224 11.62C5.5224 11.9739 5.8111 12.2607 6.16693 12.2607Z" fill="#124570"/>
</g>
<defs>
<clipPath id="clip0">
<rect width="22" height="21.8677" fill="white"/>
</clipPath>
</defs>
</svg>
