<svg width="23" height="23" viewBox="0 0 22 22" fill="none" xmlns="http://www.w3.org/2000/svg">
<g clip-path="url(#clip0)">
<path d="M21.6777 13.7667C21.8558 13.7667 22 13.6225 22 13.4445V7.55129C22 7.10179 21.6343 6.73609 21.1848 6.73609H20.2185V5.71326C20.2185 5.37402 19.9425 5.09807 19.6033 5.09807H15.4474V2.81016C15.4474 2.336 15.0617 1.95023 14.5875 1.95023H12.8393C12.6613 1.95023 12.517 2.09447 12.517 2.27249C12.517 2.45051 12.6613 2.59476 12.8393 2.59476H14.5875C14.7063 2.59476 14.8029 2.69139 14.8029 2.81016V7.63138C14.8029 7.75015 14.7063 7.84679 14.5875 7.84679H14.3137C14.1268 7.84679 13.9527 7.94733 13.8591 8.1092L13.4994 8.73229L13.1397 8.10928C13.0463 7.94733 12.8721 7.84679 12.6851 7.84679H4.38359C4.26482 7.84679 4.16818 7.75015 4.16818 7.63138V2.81016C4.16818 2.69139 4.26482 2.59476 4.38363 2.59476H11.5508C11.7288 2.59476 11.8731 2.45051 11.8731 2.27249C11.8731 2.09447 11.7288 1.95023 11.5508 1.95023H4.38363C3.90947 1.95023 3.52365 2.336 3.52365 2.81016V5.09807H2.39671C2.05747 5.09807 1.78153 5.37406 1.78153 5.71326V6.73609H0.815246C0.365707 6.73613 0 7.10179 0 7.55129V17.1391C0 18.2532 0.90634 19.1595 2.02039 19.1595H9.13988C9.21173 19.1595 9.27386 19.2057 9.29457 19.2745C9.30346 19.3042 9.30853 19.3108 9.387 19.4953C9.49588 19.8279 9.80109 20.0498 10.1527 20.0498H11.8473C12.199 20.0498 12.5041 19.8278 12.613 19.4953C12.6937 19.3058 12.6967 19.3039 12.7055 19.2745C12.7261 19.2057 12.7883 19.1595 12.8601 19.1595H19.9797C21.0937 19.1595 22 18.2532 22 17.1391V14.7329C22 14.5549 21.8558 14.4107 21.6777 14.4107C21.4997 14.4107 21.3555 14.5549 21.3555 14.7329V17.1391C21.3555 17.8977 20.7383 18.515 19.9797 18.515H12.8601C12.5085 18.515 12.2033 18.737 12.0944 19.0695L12.0144 19.256C12.0024 19.2841 11.9767 19.4053 11.8473 19.4053H10.1527C10.0809 19.4053 10.0188 19.3591 9.9981 19.2903C9.98933 19.261 9.98671 19.26 9.90567 19.0695C9.79679 18.737 9.49154 18.515 9.13988 18.515H2.02039C1.26178 18.515 0.644531 17.8978 0.644531 17.1391V7.55129C0.644531 7.45719 0.721102 7.38062 0.815246 7.38062H1.78153V16.6791C1.78153 17.0183 2.05752 17.2942 2.39671 17.2942H4.07232C4.25034 17.2942 4.39459 17.15 4.39459 16.972C4.39459 16.794 4.25034 16.6497 4.07232 16.6497H2.42606V5.74261H3.52365V7.63138C3.52365 8.10554 3.90943 8.49132 4.38359 8.49132H10.6777V15.8667C10.6777 16.2985 10.3265 16.6498 9.89471 16.6498H5.36082C5.1828 16.6498 5.03856 16.794 5.03856 16.972C5.03856 17.15 5.1828 17.2943 5.36082 17.2943H9.89476C10.3399 17.2943 10.738 17.0894 11 16.769C11.262 17.0894 11.6601 17.2943 12.1053 17.2943H19.6033C19.9426 17.2943 20.2186 17.0183 20.2186 16.6791V7.38066H21.1848C21.2789 7.38066 21.3555 7.45719 21.3555 7.55133V13.4445C21.3555 13.6224 21.4997 13.7667 21.6777 13.7667ZM19.574 16.6498H12.1053C11.6735 16.6498 11.3223 16.2985 11.3223 15.8667V8.49132H12.616L13.0448 9.23399C13.2469 9.58406 13.7521 9.5835 13.9539 9.23403L14.3827 8.49132H14.5875C14.8363 8.49132 15.0602 8.38441 15.2173 8.21486H17.9276C18.1057 8.21486 18.2499 8.07061 18.2499 7.89259C18.2499 7.71457 18.1057 7.57033 17.9276 7.57033H15.4474V5.74261H19.5739V16.6498H19.574Z" fill="#2A2A2A"/>
<path d="M17.9279 9.77274H12.9688C12.7907 9.77274 12.6465 9.91698 12.6465 10.095C12.6465 10.273 12.7907 10.4173 12.9688 10.4173H17.9279C18.1059 10.4173 18.2502 10.273 18.2502 10.095C18.2502 9.91698 18.1059 9.77274 17.9279 9.77274Z" fill="#2A2A2A"/>
<path d="M17.9279 11.9751H12.9688C12.7907 11.9751 12.6465 12.1193 12.6465 12.2974C12.6465 12.4754 12.7907 12.6196 12.9688 12.6196H17.9279C18.1059 12.6196 18.2502 12.4754 18.2502 12.2974C18.2502 12.1193 18.1059 11.9751 17.9279 11.9751Z" fill="#2A2A2A"/>
<path d="M17.9279 14.1775H12.9688C12.7907 14.1775 12.6465 14.3218 12.6465 14.4998C12.6465 14.6778 12.7907 14.8221 12.9688 14.8221H17.9279C18.1059 14.8221 18.2502 14.6778 18.2502 14.4998C18.2502 14.3218 18.1059 14.1775 17.9279 14.1775Z" fill="#2A2A2A"/>
<path d="M4.07227 10.4173H9.03142C9.20944 10.4173 9.35368 10.273 9.35368 10.095C9.35368 9.91698 9.20944 9.77274 9.03142 9.77274H4.07227C3.89425 9.77274 3.75 9.91698 3.75 10.095C3.75 10.273 3.89429 10.4173 4.07227 10.4173Z" fill="#2A2A2A"/>
<path d="M4.07227 12.6196H9.03142C9.20944 12.6196 9.35368 12.4754 9.35368 12.2974C9.35368 12.1193 9.20944 11.9751 9.03142 11.9751H4.07227C3.89425 11.9751 3.75 12.1193 3.75 12.2974C3.75 12.4754 3.89429 12.6196 4.07227 12.6196Z" fill="#2A2A2A"/>
<path d="M4.07227 14.8221H9.03142C9.20944 14.8221 9.35368 14.6778 9.35368 14.4998C9.35368 14.3218 9.20944 14.1775 9.03142 14.1775H4.07227C3.89425 14.1775 3.75 14.3218 3.75 14.4998C3.75 14.6778 3.89429 14.8221 4.07227 14.8221Z" fill="#2A2A2A"/>
<path d="M10.6777 18.1803V18.374C10.6777 18.552 10.822 18.6962 11 18.6962C11.178 18.6962 11.3223 18.552 11.3223 18.374V18.1803C11.3223 18.0022 11.178 17.858 11 17.858C10.822 17.858 10.6777 18.0022 10.6777 18.1803Z" fill="#2A2A2A"/>
<path d="M6.74379 3.98147C6.68561 3.84031 6.54952 3.74918 6.3969 3.74918H6.39634C6.24346 3.74939 6.10733 3.84096 6.04958 3.98245C6.04864 3.98486 6.04769 3.98718 6.04679 3.98959L5.17062 6.29C5.10724 6.45634 5.19077 6.64252 5.35706 6.7059C5.52335 6.76932 5.70957 6.68579 5.77295 6.51946L5.91213 6.15405H6.87497L7.01251 6.51851C7.07542 6.68523 7.26147 6.76898 7.4278 6.7062C7.59431 6.64338 7.67835 6.45745 7.61549 6.29091L6.74731 3.99036C6.74619 3.98739 6.74503 3.98443 6.74379 3.98147ZM6.15761 5.50952L6.39574 4.88424L6.63172 5.50952H6.15761Z" fill="#2A2A2A"/>
<path d="M9.39747 3.7146H8.71973C8.54171 3.7146 8.39746 3.85885 8.39746 4.03686V6.37019C8.39746 6.45592 8.43162 6.53807 8.49234 6.59857C8.55275 6.65868 8.63452 6.69246 8.71973 6.69246H8.72114C8.72114 6.69246 9.34411 6.68971 9.51585 6.68971C10.0399 6.68971 10.4661 6.26337 10.4661 5.73937C10.4661 5.45041 10.3363 5.19135 10.1322 5.01689C10.2106 4.8873 10.2566 4.73601 10.2566 4.5738C10.2566 4.10003 9.8712 3.7146 9.39747 3.7146ZM9.39747 4.35913C9.51581 4.35913 9.6121 4.45542 9.6121 4.57376C9.6121 4.69209 9.51581 4.78839 9.39747 4.78839C9.39287 4.78839 9.36477 4.78834 9.04199 4.78903V4.35913H9.39747ZM9.51585 6.04518C9.42798 6.04518 9.22242 6.04591 9.04199 6.0466V5.43399C9.23127 5.43326 9.23926 5.43378 9.51585 5.4336C9.68446 5.4336 9.82162 5.57076 9.82162 5.73937C9.82162 5.90798 9.68446 6.04518 9.51585 6.04518Z" fill="#2A2A2A"/>
<path d="M12.7643 4.35913C12.9336 4.35913 13.0967 4.40893 13.2363 4.50321C13.3838 4.60277 13.5841 4.56392 13.6837 4.41645C13.7833 4.26894 13.7445 4.06862 13.5969 3.96902C13.3505 3.8026 13.0625 3.7146 12.7643 3.7146C11.9433 3.7146 11.2754 4.38255 11.2754 5.20351C11.2754 6.02448 11.9433 6.69243 12.7643 6.69243C13.0933 6.69243 13.3888 6.5841 13.6189 6.37914C13.6641 6.33888 13.7069 6.29471 13.7463 6.24778C13.8606 6.11136 13.8427 5.90812 13.7063 5.79378C13.5698 5.67952 13.3666 5.69744 13.2523 5.83382C13.233 5.85685 13.2121 5.87838 13.1903 5.89785C13.0785 5.9974 12.9351 6.04789 12.7643 6.04789C12.2987 6.04789 11.92 5.66912 11.92 5.20351C11.92 4.7379 12.2988 4.35913 12.7643 4.35913Z" fill="#2A2A2A"/>
</g>
<defs>
<clipPath id="clip0">
<rect width="22" height="22" fill="white"/>
</clipPath>
</defs>
</svg>
