<svg xmlns="http://www.w3.org/2000/svg" viewBox="0 0 800 200" width="800" height="200">
	<style>
		tspan { white-space:pre }
		.shp0 { fill: #232323 } 
		.shp1 { fill: #ff3535 } 
	</style>
	<path id="Rentxx " fill-rule="evenodd" class="shp0" d="M297.25 109.54L283.57 109.54L283.57 163.62L255 163.62L255 31.58L305.82 31.58C322.68 31.58 331.12 40.56 331.12 58.52L331.12 73.83C331.12 84.71 327.24 91.65 319.48 94.65C326.28 97.1 329.69 102.67 329.69 111.39L329.69 163.62L301.11 163.62L301.11 113.62C301.11 110.9 299.83 109.54 297.25 109.54ZM298.68 50.97L283.57 50.97L283.57 89.55L298.68 89.55C299.76 89.55 300.65 89.14 301.33 88.31C302.14 87.5 302.55 86.55 302.55 85.47L302.55 55.05C302.55 53.97 302.14 53.02 301.33 52.2C300.65 51.38 299.76 50.97 298.68 50.97ZM373.77 62L396.83 62C413.7 62 422.14 70.98 422.14 88.94L422.14 121.18L375.81 121.18L375.81 142C375.81 143.08 376.15 144.03 376.83 144.84C377.65 145.67 378.6 146.08 379.68 146.08L390.91 146.08C392 146.08 392.89 145.67 393.57 144.84C394.38 144.03 394.79 143.08 394.79 142L394.79 130.97L422.14 130.97L422.14 138.72C422.14 156.68 413.7 165.66 396.83 165.66L373.77 165.66C356.9 165.66 348.46 156.68 348.46 138.72L348.46 88.94C348.46 70.98 356.9 62 373.77 62ZM375.81 84.86L375.81 103.22L394.79 103.22L394.79 84.86C394.79 83.76 394.38 82.81 393.57 81.99C392.89 81.18 392 80.77 390.91 80.77L379.68 80.77C378.6 80.77 377.65 81.18 376.83 81.99C376.15 82.81 375.81 83.76 375.81 84.86ZM464.59 85.66L464.59 163.62L437.23 163.62L437.23 64.04L462.13 64.04L462.13 69.14C466.35 64.38 472.74 62 481.32 62L485.6 62C502.48 62 510.91 70.98 510.91 88.94L510.91 163.62L483.56 163.62L483.56 85.66C483.56 84.58 483.16 83.63 482.34 82.82C481.66 81.99 480.78 81.58 479.68 81.58L468.46 81.58C467.37 81.58 466.42 81.99 465.61 82.82C464.93 83.63 464.59 84.58 464.59 85.66ZM565.8 147.91L573.96 147.91L573.96 165.66L554.79 165.66C537.92 165.66 529.48 156.68 529.48 138.72L529.48 42.4L556.83 42.4L556.83 64.04L573.96 64.04L573.96 83.84L556.83 83.84L556.83 138.11C556.83 141.92 557.58 144.5 559.07 145.87C560.56 147.23 562.81 147.91 565.8 147.91ZM638.46 163.62L623.35 130.97L608.25 163.62L579.89 163.62L607.64 110.56L581.72 64.04L611.52 64.04L623.35 93.83L635.19 64.04L664.99 64.04L639.07 110.56L666.82 163.62L638.46 163.62ZM727.63 163.62L712.54 130.97L697.43 163.62L669.07 163.62L696.82 110.56L670.9 64.04L700.7 64.04L712.54 93.83L724.37 64.04L754.16 64.04L728.25 110.56L756 163.62L727.63 163.62Z" />
	<path id="X " class="shp0" d="M75.57 168.45L124.13 98.38L79.05 32L114.29 32L144 75.84L173.71 32L206.49 32L161.62 96.74L211 168.45L174.73 168.45L141.75 120.3L109.78 168.45L75.57 168.45Z" />
	<path id="X " class="shp1" d="M44 168.45L92.56 98.38L47.48 32L82.73 32L112.43 75.84L142.14 32L174.92 32L130.05 96.74L179.43 168.45L143.17 168.45L110.18 120.3L78.22 168.45L44 168.45Z" />
</svg>