<svg width="20" height="20" viewBox="0 0 20 20" fill="none" xmlns="http://www.w3.org/2000/svg">
<g clip-path="url(#clip0)">
<path d="M19.4213 3.80246C19.42 3.80246 19.4187 3.80246 19.4175 3.80246H3.43887C3.22971 3.80246 3.06014 3.97204 3.06014 4.18119V5.44615H1.89365C1.6845 5.44615 1.51492 5.61572 1.51492 5.82488V7.04818H0.37873C0.169576 7.04818 0 7.21775 0 7.42691V15.6188C0 15.828 0.169576 15.9976 0.37873 15.9976H16.3611C16.5703 15.9976 16.7399 15.828 16.7399 15.6188V14.3955H17.8761C18.0852 14.3955 18.2548 14.226 18.2548 14.0168V12.7518H19.4213C19.6304 12.7518 19.8 12.5823 19.8 12.3731V4.18119C19.8 3.97204 19.6305 3.80246 19.4213 3.80246ZM15.9824 15.2401H0.765034V7.80564H1.52249V14.0168C1.52249 14.226 1.69207 14.3955 1.90122 14.3955H15.99L15.9824 15.2401ZM2.27238 13.6381V6.20739H3.06014V12.3731C3.06014 12.5823 3.22971 12.7518 3.43887 12.7518H17.4746L17.4973 13.6381H2.27238V13.6381ZM3.8176 11.9944V4.55992H19.0388L19.0425 11.9944H3.8176V11.9944Z" fill="#2A2A2A"/>
<path d="M6.01814 7.04816C5.31536 7.04816 4.74561 7.61791 4.74561 8.32069C4.74561 9.02347 5.31536 9.59322 6.01814 9.59322C6.72092 9.59322 7.29067 9.02352 7.29067 8.32069C7.29067 7.61791 6.72092 7.04816 6.01814 7.04816ZM6.01814 8.83576C5.73367 8.83576 5.50307 8.60516 5.50307 8.32069C5.50307 8.03622 5.73367 7.80562 6.01814 7.80562C6.30261 7.80562 6.53321 8.03622 6.53321 8.32069C6.53321 8.60516 6.30261 8.83576 6.01814 8.83576Z" fill="#2A2A2A"/>
<path d="M16.8723 7.04845C16.1695 7.03799 15.5914 7.59917 15.581 8.30191C15.5809 8.30816 15.5808 8.31445 15.5808 8.3207C15.5807 9.01619 16.139 9.58287 16.8344 9.59323C17.5371 9.6037 18.1153 9.04251 18.1257 8.33978C18.1362 7.63705 17.575 7.05892 16.8723 7.04845ZM16.8723 8.83511C16.588 8.84557 16.3491 8.62359 16.3386 8.33931C16.3384 8.3331 16.3383 8.3269 16.3383 8.3207C16.3381 8.04347 16.5574 7.81581 16.8344 7.80563C17.1187 7.79517 17.3576 8.01715 17.3681 8.30143C17.3785 8.58572 17.1566 8.82465 16.8723 8.83511Z" fill="#2A2A2A"/>
<path d="M12.7102 8.46461C12.5985 8.28689 12.4381 8.14496 12.2482 8.05558C12.1027 7.98661 11.9504 7.9333 11.7937 7.89652V6.91939C11.9768 6.9833 12.1482 7.07666 12.3012 7.19587C12.4008 7.26877 12.5406 7.24714 12.6135 7.14758C12.6199 7.13887 12.6256 7.12968 12.6307 7.12012C12.7014 7.00461 12.6736 6.85435 12.5663 6.77169C12.3434 6.5934 12.0852 6.46435 11.8089 6.39296V5.73397C11.8089 5.57708 11.6817 5.44992 11.5248 5.44992C11.3679 5.44992 11.2408 5.57708 11.2408 5.73397V6.42326C11.0722 6.46222 10.9136 6.53569 10.7749 6.63913C10.5443 6.80757 10.4044 7.0732 10.3962 7.35872C10.3945 7.50088 10.4311 7.64087 10.5022 7.76396C10.6065 7.92928 10.7565 8.06084 10.934 8.14269C11.0302 8.19022 11.1303 8.22951 11.2332 8.2601V9.33948C11.0353 9.26965 10.8518 9.16441 10.6916 9.02892C10.5959 8.94456 10.4499 8.95379 10.3655 9.04951C10.3617 9.05387 10.358 9.05836 10.3545 9.063C10.2743 9.17525 10.2906 9.32972 10.3924 9.4228C10.638 9.63749 10.9295 9.79296 11.2446 9.87727V10.6347C11.2446 10.7916 11.3717 10.9188 11.5286 10.9188C11.6855 10.9188 11.8126 10.7916 11.8126 10.6347V9.9C12.0412 9.86828 12.2576 9.77828 12.4413 9.63867C12.677 9.45759 12.8166 9.17842 12.8201 8.88121C12.8204 8.73517 12.7826 8.59153 12.7102 8.46461ZM11.237 7.73366C11.1662 7.70635 11.0987 7.67074 11.0362 7.62762C10.9866 7.59329 10.9441 7.5495 10.9113 7.49885C10.8873 7.45752 10.8755 7.41027 10.8772 7.36251C10.8831 7.23734 10.9476 7.12225 11.0514 7.05195C11.1082 7.00934 11.1707 6.97492 11.237 6.94969V7.73366ZM12.1573 9.23343C12.0528 9.3105 11.9325 9.36348 11.8051 9.38871V8.4078C11.9348 8.44397 12.0585 8.49879 12.1724 8.57065C12.2298 8.60857 12.2777 8.65909 12.3126 8.71836C12.3412 8.76636 12.3557 8.82152 12.3542 8.87743C12.3489 9.02068 12.2758 9.15286 12.1573 9.23343Z" fill="#2A2A2A"/>
</g>
<defs>
<clipPath id="clip0">
<rect width="19.8" height="19.8" fill="white"/>
</clipPath>
</defs>
</svg>
