<svg xmlns="http://www.w3.org/2000/svg" width="462" height="260">
 <g>
  <title>background</title>
  <rect x="-1" y="-1" width="464" height="262" id="canvas_background" fill="none"/>
 </g>

 <g>
  <title>Layer 1</title>
  <path d="m321.0738,34.81343a40.76358,40.76358 0 0 0 -32.55116,16.18593a26.83976,26.83976 0 0 0 -37.44912,24.64757l110.83377,0a40.83342,40.83342 0 0 0 -40.83349,-40.8335z" fill="#e6e6e6" id="svg_5"/>
  <circle cx="78.26776" cy="128.88929" r="65.75727" fill="#e2e2e2" id="svg_6"/>
  <path d="m463.43092,264.40594a31.87811,31.87811 0 0 1 -7.35986,0.85l-439,0a31.87492,31.87492 0 0 1 -15.46,-3.97l1.16992,-1.68l48.98,-70.53l72.58008,-104.49l1.06,-1.53l11.41993,-16.44a8.33693,8.33693 0 0 1 13.70019,0l37.93994,54.61l0,0.01l22.31983,32.14l53.28027,76.7l80.80957,-115.35a8.34782,8.34782 0 0 1 13.68018,0l51.83984,73.99l2.98,4.25l50.06011,71.44z" fill="#c2c2c2" id="svg_7"/>
  <path d="m233.80072,102.99548a50.29271,50.29271 0 0 0 -40.16048,19.96965a33.114,33.114 0 0 0 -46.2035,30.4093l136.743,0a50.3789,50.3789 0 0 0 -50.37902,-50.37895z" fill="#ccc" id="svg_8"/>
 </g>
</svg>