<svg xmlns="http://www.w3.org/2000/svg" width="617" height="430">

 <g>
  <title>background</title>
  <rect fill="none" id="canvas_background" height="492" width="619" y="-1" x="-1"/>
 </g>
 <g>
  <title>Layer 1</title>
  <path id="svg_3" fill="#fff" d="m579.07106,487.02593l-543,0a32.53692,32.53692 0 0 1 -32.5,-32.5l0,-419a32.53692,32.53692 0 0 1 32.5,-32.5l543,0a32.53685,32.53685 0 0 1 32.5,32.5l0,419a32.53685,32.53685 0 0 1 -32.5,32.5z"/>
  <path id="svg_4" fill="#fff" d="m579.07106,489.52593l-543,0a35.03947,35.03947 0 0 1 -35,-35l0,-419a35.03947,35.03947 0 0 1 35,-35l543,0a35.03947,35.03947 0 0 1 35,35l0,419a35.03947,35.03947 0 0 1 -35,35zm-543,-483a29.03275,29.03275 0 0 0 -29,29l0,419a29.03275,29.03275 0 0 0 29,29l543,0a29.03276,29.03276 0 0 0 29,-29l0,-419a29.03276,29.03276 0 0 0 -29,-29l-543,0z"/>
  <path id="svg_5" fill="#e6e6e6" d="m392.0738,140.81343a40.76358,40.76358 0 0 0 -32.55116,16.18593a26.83976,26.83976 0 0 0 -37.44912,24.64757l110.83377,0a40.83342,40.83342 0 0 0 -40.83349,-40.8335z"/>
  <circle id="svg_6" fill="#e2e2e2" r="65.75727" cy="234.88929" cx="149.26776"/>
  <path id="svg_7" fill="#c2c2c2" d="m534.43092,370.40594a31.87811,31.87811 0 0 1 -7.35986,0.85l-439,0a31.87492,31.87492 0 0 1 -15.46,-3.97l1.16992,-1.68l48.98,-70.53l72.58008,-104.49l1.06,-1.53l11.41993,-16.44a8.33693,8.33693 0 0 1 13.70019,0l37.93994,54.61l0,0.01l22.31983,32.14l53.28027,76.7l80.80957,-115.35a8.34782,8.34782 0 0 1 13.68018,0l51.83984,73.99l2.98,4.25l50.06011,71.44z"/>
  <path id="svg_8" fill="#ccc" d="m304.80072,208.99548a50.29271,50.29271 0 0 0 -40.16048,19.96965a33.114,33.114 0 0 0 -46.2035,30.4093l136.743,0a50.3789,50.3789 0 0 0 -50.37902,-50.37895z"/>
  <path id="svg_9" fill="#c2c2c2" d="m527.07106,372.25591l-439,0a32.97007,32.97007 0 0 1 -33,-33l0,-250.23975a33.03734,33.03734 0 0 1 33,-33l439,0a33.03734,33.03734 0 0 1 33,33l0,250.23975a32.96211,32.96211 0 0 1 -33,33zm-439,-314.23975a31.0352,31.0352 0 0 0 -31,31l0,250.23975a30.97077,30.97077 0 0 0 31,31l439,0a30.9637,30.9637 0 0 0 31,-31l0,-250.23975a31.03521,31.03521 0 0 0 -31,-31l-439,0z"/>
 </g>
</svg>