<svg width="22" height="24" fill="none" xmlns="http://www.w3.org/2000/svg"><path d="M11 .28a6.239 6.239 0 00-6.239 6.24c-.036 5.952 6.24 13.333 6.24 13.333s6.274-7.381 6.238-13.333A6.239 6.239 0 0011 .28zm0 8.886a2.646 2.646 0 110-5.293 2.646 2.646 0 010 5.293z" fill="#FF3535"/><path d="M13.697 16.121A37.159 37.159 0 0111 19.853a37.146 37.146 0 01-2.696-3.732C3.907 16.565.67 18.068.67 19.853c0 2.135 4.625 3.866 10.33 3.866 5.704 0 10.329-1.73 10.329-3.866 0-1.785-3.236-3.288-7.633-3.732z" fill="#E4E4E4"/><path d="M8.049 22.012c-.015 0-.03 0-.045-.002-1.676-.215-3.042-.605-3.847-1.1a.355.355 0 11.372-.606c.721.443 1.987.799 3.565 1a.356.356 0 01-.045.709zm2.951.18c-.314 0-.632-.005-.944-.017a.355.355 0 01-.31-.503.355.355 0 01.336-.208c.504.019 1.02.02 1.515.01a.353.353 0 01.266.6.356.356 0 01-.25.11c-.202.006-.406.008-.613.008z" fill="#EEF3F9"/></svg>