<svg width="22" height="22" viewBox="0 0 18 18" fill="none" xmlns="http://www.w3.org/2000/svg">
<path d="M17.8689 6.84027L12.6189 2.34028C12.5083 2.24507 12.3523 2.22345 12.2183 2.28424C12.0853 2.34541 12 2.47833 12 2.62483V5.25497C7.80981 5.37145 5.78832 7.44563 4.8274 9.19356C3.9917 10.713 3.80421 12.2174 3.76209 12.8348C3.75404 12.9293 3.75 13.0256 3.75 13.1238V13.1248C3.75 13.1248 3.75 13.1252 3.75 13.1256V13.1259C3.75 13.1263 3.75 13.1263 3.75 13.1263V13.1274V13.1277C3.75 13.1277 3.75 13.1281 3.75 13.1285V13.1288C3.75 13.1292 3.75 13.1296 3.75 13.1296C3.75 13.1299 3.75 13.1299 3.75 13.1299V13.131C3.75 13.1313 3.75 13.1317 3.75 13.1321C3.75 13.1321 3.75 13.1324 3.75 13.1332V13.1335V13.1343V13.1346C3.75 13.135 3.75 13.1354 3.75 13.1357L3.75035 13.1368C3.75035 13.1368 3.75035 13.1368 3.75035 13.1371C3.75035 13.1379 3.75035 13.1382 3.75035 13.1382C3.75035 13.1386 3.75035 13.139 3.75035 13.1393V13.1404V13.1415V13.1419V13.1429C3.75035 13.1433 3.75035 13.1437 3.75035 13.144C3.75035 13.144 3.75035 13.1448 3.7507 13.1451C3.7507 13.1451 3.7507 13.1455 3.7507 13.1462V13.1466C3.7507 13.1469 3.7507 13.1473 3.7507 13.1477V13.1487C3.7507 13.1491 3.7507 13.1495 3.7507 13.1498C3.75035 13.1509 3.75144 13.1513 3.75105 13.1513V13.1524C3.75105 13.1528 3.75105 13.1531 3.75105 13.1535V13.1546C3.75105 13.1553 3.75141 13.1561 3.75141 13.1561V13.1571C3.75141 13.1575 3.75141 13.1579 3.75141 13.1582V13.1586V13.1593V13.1597L3.75176 13.1604V13.1608C3.75176 13.1611 3.75176 13.1615 3.75176 13.1615C3.75176 13.1619 3.75176 13.1619 3.75176 13.1619V13.163V13.1633C3.75211 13.1637 3.75211 13.1637 3.75211 13.164C3.75211 13.164 3.75211 13.1644 3.75211 13.1648V13.1651C3.75211 13.1655 3.75211 13.1655 3.75211 13.1655V13.1662C3.75246 13.1673 3.75246 13.1673 3.75246 13.1673C3.75246 13.1677 3.75246 13.168 3.75246 13.1684V13.1688V13.1695V13.1698C3.75281 13.1702 3.75281 13.1706 3.75281 13.1706C3.75281 13.1713 3.75281 13.1717 3.75281 13.1717C3.77626 13.3566 3.93408 13.4994 4.12487 13.4994C4.33177 13.4994 4.4995 13.3321 4.49988 13.1252V13.1248C4.49988 13.1058 4.50023 13.0592 4.50354 12.9882C4.66723 9.86994 10.4281 9.16242 11.9999 9.02728V11.6244C11.9999 11.7709 12.0852 11.9039 12.2181 11.965C12.3518 12.0258 12.5074 12.0046 12.6188 11.909L17.8688 7.409C17.9519 7.33795 17.9998 7.23395 17.9998 7.12444C18 7.01532 17.952 6.91133 17.8689 6.84027ZM12.75 10.8096V8.62481C12.75 8.52226 12.7082 8.42449 12.6339 8.35382C12.5643 8.28681 12.4713 8.24983 12.375 8.24983C12.3695 8.24983 12.3636 8.24983 12.3578 8.25018C12.0937 8.26227 7.35935 8.50615 5.02695 10.5115C5.79855 8.47652 7.69773 5.99983 12.3731 5.99983H12.375C12.4746 5.99983 12.5698 5.96028 12.6401 5.88997C12.7105 5.81965 12.75 5.72445 12.75 5.62482V3.44L17.0489 7.12479L12.75 10.8096Z" fill="#434446"/>
<path d="M15.375 10.654C15.1677 10.654 15 10.8217 15 11.029V14.2499C15 14.6633 14.6634 14.9998 14.25 14.9998H1.50001C1.08657 14.9998 0.750023 14.6633 0.750023 14.2499V6.74983C0.750023 6.33639 1.08657 5.99984 1.50001 5.99984H6.69361C6.90089 5.99984 7.06862 5.83211 7.06862 5.62483C7.06862 5.41755 6.90089 5.24982 6.69361 5.24982H1.50001C0.672715 5.24985 0 5.92257 0 6.74983V14.2498C0 15.0771 0.672715 15.7498 1.50001 15.7498H14.25C15.0773 15.7498 15.75 15.0771 15.75 14.2498V11.029C15.75 10.8217 15.5823 10.654 15.375 10.654Z" fill="#434446"/>
</svg>
