<svg width="24" height="23" viewBox="0 0 24 23" fill="none" xmlns="http://www.w3.org/2000/svg">
<path d="M23.5793 13.1284C23.5793 11.552 22.5946 10.2022 21.2085 9.65919V0.0331421H3.03751V9.65924C1.65134 10.2022 0.666626 11.552 0.666626 13.1284V18.4526H1.30201V22.0331H22.9901V18.4526H23.5793V13.1284ZM15.966 9.27598H8.26841V5.26418H15.966V9.27598ZM4.38005 1.37572H19.8659V9.27598H17.3085V3.9216H6.92587V9.27598H4.38005V1.37572ZM2.00917 13.1284C2.00917 11.8147 3.07792 10.7459 4.3916 10.7459H19.8543C21.168 10.7459 22.2367 11.8147 22.2367 13.1284V17.11H2.00917V13.1284ZM21.6476 20.6906H2.64455V18.4526H21.6476V20.6906Z" fill="#124570"/>
</svg>
