<svg width="35" height="25" viewBox="0 0 35 25" fill="none" xmlns="http://www.w3.org/2000/svg">
<path d="M35 7.24999H33.8333V0.833328H23.3333H22.1667H12.8333H11.6667H1.16667V7.24999H0V20.6667H1.16667V22.4167H2.33333V23C2.01133 23 1.75 23.2613 1.75 23.5833C1.75 23.9053 2.01133 24.1667 2.33333 24.1667H3.5C3.822 24.1667 4.08333 23.9053 4.08333 23.5833C4.08333 23.2613 3.822 23 3.5 23V22.4167H4.66667V20.6667H30.3333V22.4167H31.5V23C31.178 23 30.9167 23.2613 30.9167 23.5833C30.9167 23.9053 31.178 24.1667 31.5 24.1667H32.6667C32.9887 24.1667 33.25 23.9053 33.25 23.5833C33.25 23.2613 32.9887 23 32.6667 23V22.4167H33.8333V20.6667H35V7.24999ZM23.3333 1.99999H32.6667V7.24999H30.3333V11.3333H23.3333V1.99999ZM4.66667 12.5H11.6667H12.8333H16.9167V16H4.66667V12.5ZM18.0833 12.5H22.1667H23.3333H30.3333V16H18.0833V12.5ZM12.8333 1.99999H22.1667V11.3333H18.0833H16.9167H12.8333V1.99999ZM2.33333 1.99999H11.6667V11.3333H4.66667V7.24999H2.33333V1.99999ZM3.5 21.25H2.33333V20.6667H3.5V21.25ZM32.6667 21.25H31.5V20.6667H32.6667V21.25ZM33.8333 19.5H30.3333H4.66667H1.16667V8.41666H3.5V11.3333V12.5V17.1667H16.9167H18.0833H31.5V12.5V11.3333V8.41666H33.8333V19.5Z" fill="#124570"/>
</svg>
