<svg width="520" height="480" viewBox="0 0 520 480" fill="none" xmlns="http://www.w3.org/2000/svg">
<g clip-path="url(#clip0)">
<path d="M238.77 264.09C238.678 264.09 238.619 264.088 238.599 264.087L227.48 264.088V262.445H238.639C238.897 262.454 244.168 262.604 249.025 256.698C256.263 247.897 262.206 226.108 249.42 172.292C232.227 99.9276 246.566 35.998 253.53 11.871C253.873 10.6773 253.934 9.42005 253.709 8.19853C253.484 6.97702 252.978 5.82471 252.232 4.83266C251.486 3.84061 250.52 3.03599 249.411 2.48239C248.301 1.9288 247.078 1.64138 245.838 1.64286H79.7897C78.5273 1.64455 77.283 1.94452 76.158 2.5184C75.0329 3.09229 74.0587 3.92393 73.3145 4.94582C70.3647 9.01204 66.3167 16.8236 63.7836 30.9483L62.1702 30.6579C64.7581 16.2264 68.9378 8.185 71.9884 3.98C72.885 2.74868 74.0586 1.74657 75.4141 1.05504C76.7696 0.36351 78.2687 0.00204602 79.7897 4.47022e-06H245.838C247.332 -0.00143593 248.806 0.345238 250.143 1.01264C251.48 1.68003 252.644 2.64987 253.543 3.84553C254.441 5.04118 255.05 6.42989 255.321 7.90194C255.592 9.37399 255.518 10.8891 255.105 12.3274C248.177 36.3293 233.912 99.9272 251.015 171.911C263.981 226.485 257.748 248.745 250.235 257.809C245.281 263.788 239.821 264.09 238.77 264.09Z" fill="#E6E6E6"/>
<path d="M208.852 294.072C208.759 294.072 208.701 294.07 208.68 294.069L197.562 294.07V292.427H208.72C208.98 292.435 214.25 292.586 219.107 286.68C226.344 277.879 232.288 256.09 219.501 202.274C202.308 129.91 216.648 65.98 223.611 41.853C223.954 40.6594 224.015 39.4021 223.79 38.1806C223.565 36.9591 223.06 35.8068 222.314 34.8147C221.568 33.8227 220.602 33.018 219.492 32.4644C218.382 31.9109 217.159 31.6234 215.92 31.6249H49.8711C48.6086 31.6266 47.3644 31.9266 46.2393 32.5005C45.1143 33.0743 44.1401 33.906 43.3958 34.9279C40.4461 38.9941 36.3981 46.8057 33.865 60.9303L32.2515 60.6399C34.8395 46.2084 39.0192 38.1671 42.0698 33.9621C42.9664 32.7307 44.14 31.7286 45.4955 31.0371C46.851 30.3456 48.3501 29.9841 49.8711 29.9821H215.92C217.414 29.9806 218.887 30.3273 220.224 30.9947C221.561 31.6621 222.725 32.6319 223.624 33.8276C224.523 35.0232 225.132 36.4119 225.403 37.884C225.674 39.356 225.6 40.8711 225.186 42.3095C218.259 66.3113 203.993 129.909 221.096 201.893C234.062 256.467 227.829 278.727 220.317 287.791C215.362 293.77 209.902 294.072 208.852 294.072Z" fill="#CCCCCC"/>
<path d="M178.933 324.055C178.84 324.055 178.782 324.052 178.762 324.051L15.2721 324.052C13.698 324.054 12.1475 323.669 10.7563 322.932C9.36498 322.194 8.1753 321.126 7.29137 319.82C6.40744 318.515 5.85619 317.013 5.68584 315.445C5.51549 313.877 5.73126 312.291 6.31424 310.825C12.2462 295.974 20.2332 260.341 7.07779 188.565C-8.45646 103.81 5.45083 73.1795 12.1511 63.9441C13.0477 62.7128 14.2213 61.7107 15.5769 61.0191C16.9324 60.3276 18.4315 59.9661 19.9526 59.9641H186.001C187.495 59.9627 188.969 60.3093 190.306 60.9767C191.643 61.6441 192.807 62.614 193.705 63.8096C194.604 65.0053 195.213 66.394 195.484 67.8661C195.755 69.3381 195.681 70.8532 195.267 72.2915C188.34 96.2934 174.075 159.891 191.178 231.876C204.144 286.449 197.911 308.709 190.398 317.773C185.443 323.752 179.984 324.055 178.933 324.055ZM19.9526 61.607C18.6901 61.6087 17.4458 61.9086 16.3207 62.4825C15.1956 63.0564 14.2214 63.888 13.4771 64.9099C6.90109 73.9741 -6.72943 104.139 8.69013 188.268C21.2575 256.836 15.1624 293.093 7.83612 311.436C7.34236 312.646 7.15703 313.96 7.29685 315.26C7.43667 316.56 7.89724 317.805 8.637 318.882C9.37052 319.969 10.3591 320.859 11.5159 321.474C12.6727 322.089 13.9625 322.41 15.2721 322.409H178.802C179.06 322.422 184.331 322.568 189.188 316.662C196.425 307.861 202.369 286.072 189.583 232.256C172.389 159.892 186.729 95.9621 193.692 71.8351C194.035 70.6414 194.097 69.3842 193.872 68.1626C193.646 66.9411 193.141 65.7888 192.395 64.7968C191.649 63.8047 190.683 63.0001 189.573 62.4465C188.464 61.8929 187.241 61.6055 186.001 61.607H19.9526Z" fill="#3F3D56"/>
<path d="M157.758 133.892H27.4276C25.6884 133.892 24.0205 133.2 22.7907 131.968C21.5609 130.735 20.8701 129.064 20.8701 127.321C20.8701 125.578 21.5609 123.907 22.7907 122.674C24.0205 121.442 25.6884 120.75 27.4276 120.75H157.758C159.497 120.75 161.165 121.442 162.395 122.674C163.625 123.907 164.316 125.578 164.316 127.321C164.316 129.064 163.625 130.735 162.395 131.968C161.165 133.2 159.497 133.892 157.758 133.892Z" fill="#FF3535"/>
<path d="M157.758 161.821H27.4276C25.6884 161.821 24.0205 161.129 22.7907 159.896C21.5609 158.664 20.8701 156.992 20.8701 155.25C20.8701 153.507 21.5609 151.835 22.7907 150.603C24.0205 149.37 25.6884 148.678 27.4276 148.678H157.758C159.497 148.678 161.165 149.37 162.395 150.603C163.625 151.835 164.316 153.507 164.316 155.25C164.316 156.992 163.625 158.664 162.395 159.896C161.165 161.129 159.497 161.821 157.758 161.821Z" fill="#CCCCCC"/>
<path d="M157.758 189.749H27.4276C25.6884 189.749 24.0205 189.057 22.7907 187.825C21.5609 186.592 20.8701 184.921 20.8701 183.178C20.8701 181.435 21.5609 179.764 22.7907 178.531C24.0205 177.299 25.6884 176.607 27.4276 176.607H157.758C159.497 176.607 161.165 177.299 162.395 178.531C163.625 179.764 164.316 181.435 164.316 183.178C164.316 184.921 163.625 186.592 162.395 187.825C161.165 189.057 159.497 189.749 157.758 189.749Z" fill="#CCCCCC"/>
<path d="M167.594 217.678H37.2638C35.5247 217.678 33.8567 216.986 32.627 215.753C31.3972 214.521 30.7063 212.849 30.7063 211.106C30.7063 209.364 31.3972 207.692 32.627 206.46C33.8567 205.227 35.5247 204.535 37.2638 204.535H167.594C169.333 204.535 171.001 205.227 172.231 206.46C173.461 207.692 174.152 209.364 174.152 211.106C174.152 212.849 173.461 214.521 172.231 215.753C171.001 216.986 169.333 217.678 167.594 217.678Z" fill="#CCCCCC"/>
<path d="M167.594 245.606H37.2638C35.5247 245.606 33.8567 244.914 32.627 243.682C31.3972 242.449 30.7063 240.778 30.7063 239.035C30.7063 237.292 31.3972 235.621 32.627 234.388C33.8567 233.156 35.5247 232.464 37.2638 232.464H167.594C169.333 232.464 171.001 233.156 172.231 234.388C173.461 235.621 174.152 237.292 174.152 239.035C174.152 240.778 173.461 242.449 172.231 243.682C171.001 244.914 169.333 245.606 167.594 245.606Z" fill="#CCCCCC"/>
<path d="M88.9042 105.964H27.4276C25.6884 105.964 24.0205 105.272 22.7907 104.039C21.5609 102.807 20.8701 101.135 20.8701 99.3926C20.8701 97.6497 21.5609 95.9783 22.7907 94.7459C24.0205 93.5135 25.6884 92.8212 27.4276 92.8212H88.9042C90.6434 92.8212 92.3113 93.5135 93.5411 94.7459C94.7708 95.9783 95.4617 97.6497 95.4617 99.3926C95.4617 101.135 94.7708 102.807 93.5411 104.039C92.3113 105.272 90.6434 105.964 88.9042 105.964Z" fill="#FF3535"/>
<path d="M80.9661 290.638C82.2892 285.024 88.5056 283.184 93.5879 283.389C96.799 283.607 99.9842 284.112 103.105 284.899C106.371 285.631 109.605 286.498 112.823 287.417C118.723 289.103 124.563 291.143 130.56 292.461C135.554 293.559 140.98 294.203 145.959 292.687C150.746 291.231 154.806 287.655 156.109 282.711C157.336 278.053 155.651 272.959 151.146 270.83C147.038 268.888 141.849 269.876 139.813 274.266C137.517 279.217 139.811 284.616 143.446 288.198C145.512 290.142 147.775 291.865 150.198 293.338C152.658 295.017 155.395 296.246 158.283 296.967C163.025 297.982 168.674 296.486 171.119 291.946C171.663 290.918 171.99 289.79 172.08 288.63C172.225 287.051 169.765 287.061 169.621 288.63C169.206 293.151 163.923 295.268 159.973 294.772C157.306 294.329 154.76 293.339 152.493 291.863C150.305 290.585 148.233 289.119 146.298 287.482C142.947 284.576 139.806 279.794 142.056 275.26C143.889 271.568 148.666 271.604 151.571 273.986C155.09 276.869 154.462 282.103 152.141 285.528C149.572 289.32 144.914 290.909 140.523 291.081C135.752 291.267 131.02 290.17 126.46 288.872C120.794 287.26 115.184 285.455 109.491 283.937C106.259 283.075 103.001 282.298 99.7109 281.692C96.5995 281.005 93.4037 280.784 90.2275 281.035C85.0963 281.628 79.8584 284.622 78.5949 289.983C78.2315 291.525 80.602 292.184 80.9661 290.638L80.9661 290.638Z" fill="#3F3D56"/>
<path d="M332.2 429.967C332.342 446.142 333.524 462.29 335.74 478.312C335.817 478.875 335.902 479.437 335.98 480L487.132 479.154C487.576 478.595 488.013 478.029 488.436 477.457C489.847 475.563 491.17 473.616 492.384 471.601C498.22 461.894 500.891 450.529 498.214 442.688L498.166 442.566C497.588 440.849 496.677 439.263 495.486 437.9C489.382 431.014 477.04 432.162 465.84 437.72C475.886 426.7 483.885 412.795 484.493 400.383C485.088 388.277 478.772 379.629 471.92 372.279C471.695 372.036 471.47 371.8 471.246 371.564C471.137 371.442 471.021 371.328 470.912 371.206C465.567 365.605 459.334 360.084 450.314 360.752C440.421 361.485 429.452 369.79 421.761 379.466C414.071 389.136 408.96 400.121 403.78 410.842C398.593 421.556 392.981 432.544 384.658 441.702C395.931 427.412 405.02 411.154 408.378 395.342C411.736 379.529 408.781 364.342 398.733 356.895C395.683 354.704 392.154 353.277 388.44 352.733C388.007 352.661 387.566 352.602 387.119 352.551C377.818 351.49 366.713 354.714 357.265 362.419C346.86 370.903 339.645 383.481 336.056 395.421C332.467 407.361 332.084 418.856 332.2 429.967Z" fill="#F2F2F2"/>
<path d="M431.093 479.467L433.983 479.451C434.901 478.876 435.823 478.308 436.75 477.746C437.323 477.384 437.903 477.034 438.484 476.678C448.071 470.811 457.718 465.182 467.425 459.793C477.124 454.4 486.871 449.255 496.666 444.358C496.926 444.245 497.138 444.044 497.265 443.791C497.392 443.537 497.427 443.247 497.363 442.97C497.352 442.934 497.336 442.9 497.315 442.869C497.178 442.612 496.873 442.505 496.427 442.725C495.225 443.328 494.017 443.932 492.815 444.55C482.993 449.53 473.212 454.759 463.474 460.236C453.743 465.711 444.067 471.428 434.446 477.386C434.244 477.509 434.041 477.64 433.839 477.763C432.921 478.331 432.011 478.899 431.093 479.467Z" fill="white"/>
<path d="M393.826 479.676L395.613 479.666C396.016 479.101 396.413 478.535 396.816 477.97C406.287 464.661 415.756 451.351 425.223 438.042C440.726 416.252 456.225 394.463 471.719 372.674C471.811 372.556 471.879 372.422 471.92 372.279C472.053 371.797 471.699 371.514 471.246 371.564C471.055 371.591 470.872 371.659 470.709 371.763C470.546 371.867 470.407 372.004 470.301 372.166C461.609 384.385 452.92 396.6 444.232 408.811C428.809 430.491 413.389 452.17 397.97 473.846C396.99 475.221 396.009 476.604 395.028 477.98C394.625 478.545 394.222 479.111 393.826 479.676Z" fill="white"/>
<path d="M354.009 469.275C354.1 472.293 354.299 475.264 354.56 478.207C354.61 478.769 354.66 479.332 354.711 479.895L356.586 479.885C356.529 479.322 356.472 478.759 356.421 478.196C356.025 473.945 355.744 469.645 355.706 465.229C355.656 452.985 356.846 440.767 359.259 428.764C361.824 415.84 365.507 403.165 370.266 390.881C375.261 377.925 381.283 365.391 388.274 353.399C388.406 353.203 388.465 352.968 388.44 352.733C388.363 352.198 387.651 352.039 387.119 352.551C387.014 352.651 386.924 352.766 386.85 352.891C385.985 354.382 385.136 355.877 384.303 357.376C377.569 369.435 371.805 382.013 367.066 394.989C362.553 407.314 359.119 420.008 356.805 432.93C354.638 444.918 353.7 457.096 354.009 469.275Z" fill="white"/>
<path d="M171.319 291.222C171.008 290.963 170.781 290.617 170.665 290.228C170.55 289.84 170.553 289.425 170.672 289.038C170.791 288.651 171.023 288.307 171.336 288.052C171.65 287.796 172.032 287.638 172.435 287.6C176.906 287.167 181.418 287.631 185.708 288.963L229.41 302.489C229.976 302.664 230.502 302.949 230.957 303.327C231.413 303.706 231.79 304.171 232.066 304.696C232.343 305.22 232.514 305.794 232.569 306.385C232.624 306.976 232.562 307.572 232.387 308.138C232.213 308.705 231.928 309.232 231.55 309.689C231.173 310.146 230.709 310.523 230.185 310.8C229.662 311.077 229.089 311.248 228.499 311.304C227.91 311.359 227.315 311.297 226.75 311.122L183.048 297.597C178.755 296.273 174.768 294.106 171.319 291.222Z" fill="#3F3D56"/>
<path d="M350.459 347.407C349.272 346.908 348.209 346.155 347.344 345.199C346.479 344.244 345.833 343.11 345.453 341.878C345.072 340.645 344.966 339.344 345.142 338.066C345.317 336.788 345.77 335.564 346.469 334.481L338.978 295.223L358.07 293.732L359.222 332.131C360.961 333.428 362.165 335.319 362.605 337.445C363.045 339.572 362.692 341.787 361.612 343.67C360.532 345.553 358.8 346.973 356.744 347.662C354.689 348.351 352.452 348.26 350.459 347.407Z" fill="#FFB8B8"/>
<path d="M337.8 327.147L318.355 236.394C317.556 232.666 318.268 228.773 320.333 225.572C322.399 222.37 325.649 220.122 329.368 219.322C333.088 218.521 336.972 219.235 340.167 221.305C343.362 223.374 345.606 226.631 346.404 230.359L365.85 321.111C366.054 322.069 365.87 323.07 365.339 323.893C364.809 324.716 363.974 325.294 363.018 325.501L342.181 329.985C341.707 330.087 341.218 330.094 340.742 330.007C340.265 329.92 339.81 329.739 339.404 329.475C338.997 329.212 338.646 328.87 338.37 328.471C338.095 328.071 337.901 327.621 337.8 327.147Z" fill="#FF3535"/>
<path d="M305.883 469.908H295.835L291.053 431.065L305.886 431.065L305.883 469.908Z" fill="#FFB8B8"/>
<path d="M288.656 467.031H308.037V479.259H276.454C276.454 477.653 276.769 476.063 277.382 474.579C277.996 473.096 278.895 471.748 280.028 470.612C281.161 469.477 282.506 468.576 283.986 467.961C285.467 467.347 287.054 467.031 288.656 467.031Z" fill="#2F2E41"/>
<path d="M339.49 469.087H329.442L324.661 430.243L339.493 430.244L339.49 469.087Z" fill="#FFB8B8"/>
<path d="M322.263 466.209H341.644V478.438H310.061C310.061 476.832 310.376 475.242 310.99 473.758C311.603 472.274 312.502 470.926 313.635 469.791C314.768 468.655 316.113 467.754 317.594 467.14C319.074 466.525 320.661 466.209 322.263 466.209Z" fill="#2F2E41"/>
<path d="M293.843 462.663C293.466 462.353 293.155 461.971 292.928 461.539C292.7 461.107 292.561 460.634 292.518 460.147L280.836 331.364C280.79 330.864 280.847 330.361 281.003 329.883C281.158 329.406 281.409 328.966 281.739 328.589C282.07 328.212 282.474 327.906 282.927 327.691C283.379 327.476 283.87 327.355 284.371 327.336L342.962 325.134C343.469 325.115 343.975 325.201 344.447 325.387C344.919 325.573 345.348 325.854 345.707 326.213C346.066 326.573 346.347 327.002 346.533 327.476C346.719 327.949 346.805 328.455 346.787 328.963L342.103 457.251C342.069 458.149 341.71 459.004 341.093 459.656C340.476 460.309 339.644 460.714 338.751 460.797L326.937 461.873C326.447 461.918 325.953 461.864 325.484 461.714C325.016 461.565 324.581 461.323 324.207 461.003C323.833 460.683 323.527 460.291 323.306 459.85C323.086 459.41 322.955 458.929 322.923 458.438L317.501 376.938C317.497 376.782 317.462 376.627 317.398 376.485C317.334 376.342 317.242 376.213 317.128 376.106C317.014 375.999 316.88 375.916 316.733 375.861C316.587 375.807 316.431 375.782 316.275 375.789H316.27C316.113 375.783 315.957 375.808 315.81 375.863C315.663 375.918 315.529 376.003 315.415 376.11C315.301 376.218 315.209 376.348 315.146 376.492C315.083 376.636 315.049 376.791 315.046 376.948L310.194 458.997C310.146 459.875 309.785 460.707 309.177 461.342C308.568 461.976 307.753 462.372 306.879 462.456L296.559 463.49C296.074 463.54 295.584 463.493 295.118 463.351C294.651 463.209 294.218 462.975 293.843 462.663H293.843Z" fill="#2F2E41"/>
<path d="M316.381 200.037C327.5 200.037 336.513 191.004 336.513 179.861C336.513 168.719 327.5 159.686 316.381 159.686C305.262 159.686 296.248 168.719 296.248 179.861C296.248 191.004 305.262 200.037 316.381 200.037Z" fill="#FFB8B8"/>
<path d="M277.611 332.236C277.253 331.828 276.989 331.346 276.84 330.823C276.691 330.3 276.659 329.751 276.748 329.215C280.465 306.575 278.37 273.297 275.958 249.366C275.329 243.018 276.379 236.616 279.004 230.804C281.629 224.993 285.735 219.977 290.91 216.261L301.424 207.23C302.123 206.637 303.015 206.321 303.93 206.342L330.051 207.089C330.992 207.115 331.888 207.503 332.553 208.171L336.59 217.129L336.631 217.159C341.441 220.702 345.3 225.384 347.862 230.787C350.425 236.189 351.611 242.144 351.316 248.119L347.471 327.745C347.422 328.671 347.029 329.545 346.37 330.195C345.711 330.846 344.833 331.226 343.908 331.261L280.507 333.493C280.466 333.494 280.426 333.495 280.385 333.495C279.86 333.496 279.34 333.384 278.862 333.167C278.384 332.95 277.957 332.632 277.611 332.236Z" fill="#FF3535"/>
<path d="M201.564 299.009C201.532 297.719 201.783 296.438 202.299 295.256C202.815 294.074 203.583 293.02 204.549 292.168C205.516 291.316 206.657 290.686 207.892 290.324C209.128 289.961 210.427 289.874 211.7 290.07L244.377 267.153L253.549 283.999L219.059 300.769C218.59 302.89 217.361 304.764 215.605 306.037C213.849 307.31 211.688 307.893 209.531 307.676C207.375 307.459 205.372 306.457 203.904 304.86C202.436 303.262 201.603 301.181 201.564 299.009L201.564 299.009Z" fill="#FFB8B8"/>
<path d="M229.063 302.992C228.584 302.92 228.124 302.753 227.71 302.501C227.295 302.25 226.935 301.918 226.649 301.526L214.038 284.309C213.461 283.518 213.22 282.53 213.368 281.561C213.516 280.592 214.042 279.722 214.829 279.141L289.499 224.218C292.566 221.962 296.401 221.02 300.162 221.598C302.024 221.884 303.811 222.535 305.422 223.513C307.033 224.492 308.436 225.779 309.551 227.301C310.665 228.823 311.47 230.55 311.918 232.383C312.367 234.216 312.451 236.121 312.165 237.986C311.88 239.852 311.23 241.644 310.254 243.258C309.277 244.872 307.993 246.278 306.474 247.395L231.805 302.318C231.175 302.784 230.413 303.036 229.63 303.036C229.441 303.036 229.251 303.021 229.063 302.992Z" fill="#FF3535"/>
<path d="M317.411 197.821C320.081 194.541 319.789 189.544 317.646 185.896C315.503 182.248 311.866 179.735 308.123 177.773C304.38 175.81 300.404 174.267 296.881 171.93C293.359 169.594 293.513 159.701 292.575 155.574L294.812 156.321C293.952 155.218 293.676 151.961 292.816 150.859C295.344 151.11 297.288 153.515 299.815 153.765L298.357 149.841C307.024 149.306 312.413 155.342 321.081 154.806C325.376 154.541 330.039 154.373 333.57 156.838C336.638 158.979 338.191 162.686 339.21 166.292C341.398 174.032 341.738 182.703 337.959 189.801C334.18 196.898 325.469 201.681 317.86 199.118L317.411 197.821Z" fill="#2F2E41"/>
<path d="M206.879 479.713H519.18C519.398 479.713 519.606 479.626 519.76 479.472C519.914 479.318 520 479.109 520 478.891C520 478.673 519.914 478.464 519.76 478.31C519.606 478.156 519.398 478.07 519.18 478.07H206.879C206.662 478.07 206.453 478.156 206.299 478.31C206.146 478.464 206.059 478.673 206.059 478.891C206.059 479.109 206.146 479.318 206.299 479.472C206.453 479.626 206.662 479.713 206.879 479.713Z" fill="#3F3D56"/>
</g>
<defs>
<clipPath id="clip0">
<rect width="520" height="480" fill="white"/>
</clipPath>
</defs>
</svg>
