<svg width="30" height="22" fill="none" xmlns="http://www.w3.org/2000/svg"><path d="M29.686 3.12a3.981 3.981 0 00-3.67-2.432H7.994a.469.469 0 000 .937h18.022a3.047 3.047 0 013.047 3.047v12.656a3.047 3.047 0 01-3.047 3.047H3.984a3.047 3.047 0 01-3.046-3.047V4.672a3.047 3.047 0 013.046-3.047h.26a.469.469 0 100-.937h-.26A3.98 3.98 0 000 4.672v12.656a3.982 3.982 0 003.984 3.985h22.032A3.98 3.98 0 0030 17.328V4.672a3.954 3.954 0 00-.314-1.551z" fill="#000"/><path d="M4.765 7.866l.028.127v.004l.456 2.101.01.043a3.215 3.215 0 001.31 1.723.473.473 0 00-.006.073v.554L6 12.603h-.003l-2.239.448a2.35 2.35 0 00-1.884 2.299v2.681a.469.469 0 00.938 0V15.35a1.41 1.41 0 011.13-1.38l1.697-.339a2.813 2.813 0 005.595 0l1.697.34a1.41 1.41 0 011.13 1.379v2.681a.469.469 0 00.938 0V15.35a2.35 2.35 0 00-1.884-2.299l-2.239-.447h-.003l-.562-.113v-.553a.466.466 0 00-.014-.115 3.214 3.214 0 001.248-1.682l.007-.021.488-2.257a3.562 3.562 0 00-.729-2.989 3.768 3.768 0 00-5.819 0 3.564 3.564 0 00-.728 2.992zm5.545 5.58a1.875 1.875 0 01-3.745 0l.935-.187v-.975a3.403 3.403 0 001.875-.02v.995l.935.187zm.335-3.568c-.31.952-1.21 1.59-2.242 1.59-1.033 0-1.932-.638-2.243-1.59l-.415-1.919c.178-.312.46-.552.796-.68.351.14 1.185.44 1.896.44.712 0 1.544-.299 1.896-.439.304.117.565.324.746.594l-.434 2.004zM6.221 5.465a2.83 2.83 0 014.363 0c.278.341.467.746.55 1.178a2.489 2.489 0 00-.717-.319l-.152-.034-.143.063c-.01.004-.976.428-1.684.428-.71 0-1.676-.424-1.685-.428L6.61 6.29l-.152.034a2.518 2.518 0 00-.795.37 2.65 2.65 0 01.558-1.229z" fill="#000"/><path d="M4.219 17.094v.937a.469.469 0 10.937 0v-.937a.469.469 0 10-.937 0zm7.5 0v.937a.469.469 0 10.937 0v-.937a.469.469 0 10-.937 0zM26.25 8.188a.469.469 0 00.938 0V6.78a.469.469 0 00-.938 0v1.407zm-1.875 0a.469.469 0 00.938 0V6.78a.469.469 0 00-.938 0v1.407zm-1.875 0a.469.469 0 00.938 0V6.78a.469.469 0 00-.938 0v1.407zm-1.875 0a.469.469 0 00.938 0V6.78a.469.469 0 00-.938 0v1.407zm-1.875 0a.469.469 0 00.938 0V6.78a.469.469 0 00-.938 0v1.407zm-1.875 0a.469.469 0 00.938 0V6.78a.469.469 0 00-.938 0v1.407zm7.969-2.813a.469.469 0 100-.938.469.469 0 000 .938zm-1.875 0a.469.469 0 100-.938.469.469 0 000 .938zm3.75 0a.469.469 0 100-.938.469.469 0 000 .938zm-9.375 8.438h9.375a.469.469 0 000-.938h-9.375a.469.469 0 100 .938zm0 1.875h9.375a.469.469 0 000-.938h-9.375a.469.469 0 100 .938zm0-4h9.375a.469.469 0 000-.938h-9.375a.469.469 0 100 .938zM4.182 1.627h3.636c.048 0 .095-.049.129-.137A.956.956 0 008 1.16a.956.956 0 00-.053-.332C7.913.74 7.867.69 7.818.69H4.182c-.048 0-.095.05-.129.137A.956.956 0 004 1.16c0 .124.02.243.053.331.034.088.08.137.129.137zm13.162 16.061h9.375a.469.469 0 000-.938h-9.375a.469.469 0 100 .938z" fill="#000"/></svg>