<svg width="22" height="22" viewBox="0 0 22 22" fill="none" xmlns="http://www.w3.org/2000/svg">
<path d="M2.14844 0V22H19.8516V0H2.14844ZM3.4375 1.28906H10.3555V4.68359H3.4375V1.28906ZM18.5625 20.7109H3.4375V5.97266H18.5625V20.7109ZM18.5625 4.68359H11.6445V1.28906H18.5625V4.68359Z" fill="#124570"/>
<path d="M15.7147 10.3159C14.7183 8.76434 12.9772 7.73438 11.0006 7.73438C7.91417 7.73438 5.40265 10.2455 5.40265 13.3323C5.40265 16.4188 7.91417 18.9299 11.0006 18.9299C12.9772 18.9299 14.7178 17.8999 15.7143 16.3488C16.2737 15.4778 16.5986 14.4422 16.5986 13.3323C16.5986 12.2225 16.2737 11.1869 15.7147 10.3159ZM11.0006 17.6408C8.62488 17.6408 6.69171 15.7081 6.69171 13.3323C6.69171 10.9562 8.62488 9.02344 11.0006 9.02344C12.3232 9.02344 13.5083 9.62242 14.2989 10.563C14.9293 11.3124 15.3095 12.2788 15.3095 13.3323C15.3095 14.3855 14.9293 15.3519 14.2985 16.1013C13.5083 17.0418 12.3232 17.6408 11.0006 17.6408Z" fill="#124570"/>
<path d="M13.3393 11.2316L13.0974 11.0125C12.522 10.4917 11.7769 10.2051 11.0005 10.2051C9.27616 10.2051 7.87323 11.608 7.87323 13.3323C7.87323 15.0567 9.27616 16.4592 11.0005 16.4592C11.7769 16.4592 12.522 16.1726 13.0974 15.6518L13.3393 15.4331C12.8133 14.8895 12.4898 14.1487 12.4898 13.3323C12.4898 12.5159 12.8133 11.7752 13.3393 11.2316ZM11.7048 15.0305C11.4835 15.122 11.2446 15.1701 11.0005 15.1701C9.98686 15.1701 9.16229 14.3455 9.16229 13.3323C9.16229 12.3187 9.98686 11.4941 11.0005 11.4941C11.2446 11.4941 11.4835 11.5423 11.7048 11.6342C11.3808 12.1357 11.2029 12.7252 11.2029 13.3323C11.2029 13.9391 11.3808 14.5286 11.7048 15.0305Z" fill="#124570"/>
<path d="M14.1648 2.29883H17.4161V3.58789H14.1648V2.29883Z" fill="#124570"/>
<path d="M6.70288 2.29883H8.00153V3.58789H6.70288V2.29883Z" fill="#124570"/>
<path d="M4.60724 2.29883H5.90588V3.58789H4.60724V2.29883Z" fill="#124570"/>
</svg>
