<svg width="47" height="21" viewBox="0 0 47 21" fill="none" xmlns="http://www.w3.org/2000/svg">
<path d="M0.99 21C0.81 21 0.65 20.94 0.51 20.82C0.39 20.68 0.33 20.53 0.33 20.37C0.33 20.23 0.37 20.11 0.45 20.01L6.99 10.29L0.93 0.989998C0.87 0.869999 0.84 0.749999 0.84 0.629999C0.84 0.469999 0.9 0.329999 1.02 0.209999C1.14 0.0699989 1.29 -1.43051e-06 1.47 -1.43051e-06H5.82C6.06 -1.43051e-06 6.26 0.059999 6.42 0.18C6.58 0.299999 6.73 0.449999 6.87 0.629999L10.44 6.06L14.07 0.629999C14.33 0.209999 14.68 -1.43051e-06 15.12 -1.43051e-06H19.26C19.42 -1.43051e-06 19.56 0.0699989 19.68 0.209999C19.82 0.329999 19.89 0.469999 19.89 0.629999C19.89 0.769999 19.85 0.889998 19.77 0.989998L13.68 10.26L20.28 20.01C20.34 20.09 20.37 20.21 20.37 20.37C20.37 20.53 20.31 20.68 20.19 20.82C20.07 20.94 19.92 21 19.74 21H15.27C14.85 21 14.5 20.8 14.22 20.4L10.26 14.64L6.33 20.4C6.11 20.8 5.77 21 5.31 21H0.99ZM22.4529 21C22.2729 21 22.1129 20.94 21.9729 20.82C21.8529 20.68 21.7929 20.51 21.7929 20.31C21.7929 20.15 21.8429 20 21.9429 19.86L26.9529 12.99L22.3929 6.54C22.2729 6.38 22.2129 6.22 22.2129 6.06C22.2129 5.88 22.2829 5.73 22.4229 5.61C22.5629 5.47 22.7229 5.4 22.9029 5.4H26.5629C26.9229 5.4 27.2129 5.57 27.4329 5.91L30.2229 9.75L32.9829 5.94C33.1029 5.78 33.2229 5.65 33.3429 5.55C33.4629 5.45 33.6429 5.4 33.8829 5.4H37.3929C37.5729 5.4 37.7229 5.47 37.8429 5.61C37.9829 5.73 38.0529 5.88 38.0529 6.06C38.0529 6.26 38.0029 6.42 37.9029 6.54L33.2229 12.99L38.3229 19.86C38.4229 20 38.4729 20.15 38.4729 20.31C38.4729 20.51 38.4029 20.68 38.2629 20.82C38.1429 20.94 37.9929 21 37.8129 21H33.9729C33.6329 21 33.3529 20.84 33.1329 20.52L30.1029 16.41L27.0429 20.52C26.9229 20.68 26.8029 20.8 26.6829 20.88C26.5629 20.96 26.4029 21 26.2029 21H22.4529Z" fill="#FF3535"/>
<path d="M41.9196 21C41.7196 21 41.5396 20.93 41.3796 20.79C41.2396 20.63 41.1696 20.45 41.1696 20.25V16.44C41.1696 16.22 41.2396 16.04 41.3796 15.9C41.5396 15.76 41.7196 15.69 41.9196 15.69H45.7296C45.9496 15.69 46.1296 15.76 46.2696 15.9C46.4096 16.04 46.4796 16.22 46.4796 16.44V20.25C46.4796 20.45 46.4096 20.63 46.2696 20.79C46.1296 20.93 45.9496 21 45.7296 21H41.9196Z" fill="#434446"/>
</svg>
